<?xml version="1.0" standalone="no"?>
<!DOCTYPE svg PUBLIC "-//W3C//DTD SVG 20010904//EN"
 "http://www.w3.org/TR/2001/REC-SVG-20010904/DTD/svg10.dtd">
<svg version="1.0" xmlns="http://www.w3.org/2000/svg"
 width="1080.000000pt" height="1080.000000pt" viewBox="0 0 1080.000000 1080.000000"
 preserveAspectRatio="xMidYMid meet">
<metadata>
Created by potrace 1.11, written by Peter Selinger 2001-2013
</metadata>
<g transform="translate(0.000000,1080.000000) scale(0.100000,-0.100000)"
fill="#000000" stroke="none">
<path d="M2723 7822 c-18 -2 -33 -4 -33 -5 0 -1 20 -53 45 -116 27 -69 43
-123 39 -135 -4 -15 -3 -17 4 -7 7 9 14 1 26 -34 8 -26 13 -52 9 -58 -3 -5 -1
-7 5 -4 12 8 45 -80 35 -96 -3 -6 -1 -7 5 -3 7 4 13 2 13 -3 2 -16 4 -23 17
-54 7 -16 9 -34 5 -40 -3 -7 -2 -8 2 -4 11 10 68 -131 59 -145 -4 -6 -3 -8 3
-5 5 3 15 -11 22 -31 16 -47 29 -79 49 -117 9 -16 15 -31 14 -32 -2 -4 8 -36
19 -55 5 -10 9 -22 9 -28 0 -6 9 -32 21 -58 20 -45 29 -65 48 -114 5 -13 16
-42 26 -65 9 -23 14 -47 10 -54 -5 -7 -4 -10 3 -5 13 8 26 -29 16 -45 -4 -8
-3 -9 4 -5 11 7 14 3 16 -26 1 -7 4 -15 7 -18 14 -12 79 -192 73 -202 -4 -6
-3 -8 3 -5 12 8 26 -20 17 -34 -3 -5 -1 -9 3 -9 5 0 15 -17 22 -37 7 -21 19
-51 26 -68 36 -83 44 -105 32 -98 -6 4 -2 -6 11 -21 12 -16 22 -35 22 -42 0
-8 4 -22 9 -32 13 -26 36 -81 76 -184 15 -37 23 -73 19 -80 -4 -7 -3 -9 1 -5
11 10 67 -131 59 -146 -4 -7 -3 -9 1 -4 7 6 68 -125 79 -168 1 -5 10 -27 19
-48 9 -21 18 -45 19 -55 2 -9 7 -20 11 -23 4 -3 9 -16 10 -27 1 -12 5 -22 9
-22 4 0 8 -7 8 -15 0 -8 11 -39 25 -69 14 -30 25 -58 25 -61 0 -4 6 -21 14
-38 8 -18 35 -86 61 -152 26 -66 53 -133 60 -150 44 -99 85 -218 79 -227 -4
-7 -2 -8 4 -4 7 4 12 1 12 -6 0 -7 7 -26 15 -42 8 -15 12 -32 9 -37 -3 -5 0
-9 6 -9 7 0 10 -7 6 -15 -3 -8 -2 -15 3 -15 5 0 19 -28 31 -62 13 -35 26 -67
30 -73 8 -11 21 -61 19 -71 0 -4 3 -10 8 -13 13 -9 43 -92 37 -102 -3 -5 -2
-9 3 -9 4 0 14 -15 21 -32 27 -64 32 -78 41 -100 5 -13 14 -36 20 -51 6 -16 9
-32 6 -37 -3 -4 2 -10 10 -14 8 -3 15 -12 15 -20 0 -8 14 -47 31 -87 16 -41
32 -78 33 -84 2 -5 8 -21 13 -35 6 -14 19 -45 28 -70 9 -25 24 -60 32 -78 8
-18 11 -37 7 -44 -4 -6 -3 -8 3 -5 6 4 16 -13 23 -36 8 -23 26 -71 41 -107 15
-36 40 -97 56 -137 l28 -72 121 -3 c101 -3 120 -1 121 12 1 8 10 33 19 55 10
22 17 43 16 48 -1 4 2 7 8 7 5 0 6 8 3 17 -5 13 -2 15 12 10 13 -6 15 -4 8 5
-11 14 8 74 19 63 3 -4 6 0 5 7 -1 31 4 48 14 48 5 0 7 -5 3 -12 -5 -7 -3 -8
5 -4 7 5 10 11 7 14 -3 3 0 12 7 21 11 14 10 15 -7 1 -18 -14 -18 -13 -11 10
4 14 12 28 17 31 5 3 9 9 8 13 -3 11 22 70 39 90 9 11 11 16 4 13 -11 -7 16
75 30 89 4 4 7 16 7 26 0 11 4 16 10 13 6 -3 7 1 4 9 -3 9 -1 16 5 16 6 0 10
3 9 8 -4 16 14 72 23 72 6 0 8 -4 5 -9 -3 -5 2 -15 12 -22 15 -13 16 -12 3 4
-7 9 -10 17 -5 17 4 0 3 5 -3 11 -12 12 -6 49 8 49 5 0 8 3 7 8 -2 8 19 72 40
122 9 19 15 38 14 43 -1 4 3 7 8 7 5 0 9 3 9 8 -3 19 2 33 11 27 5 -3 7 0 4 9
-8 20 14 58 29 49 7 -4 7 0 -2 10 -9 12 -10 17 -2 17 7 0 10 4 6 9 -7 13 16
62 26 55 5 -3 6 1 4 9 -9 21 24 89 38 81 9 -5 9 -4 0 6 -9 10 -6 25 13 68 13
30 24 61 24 68 0 8 4 14 10 14 5 0 9 3 8 8 -5 16 36 111 45 105 6 -3 7 -1 3 6
-4 6 0 25 8 43 9 17 16 35 16 40 0 5 7 25 17 46 9 20 15 40 15 45 -1 4 3 7 9
7 5 0 8 4 5 9 -6 10 16 61 26 61 4 0 5 7 1 16 -4 10 0 22 9 28 8 6 15 14 16
19 4 40 16 67 30 67 12 0 14 3 5 8 -10 6 -8 21 10 63 12 30 24 56 27 59 3 3 7
14 8 25 2 11 9 23 14 26 6 4 7 12 4 18 -4 6 -1 14 7 17 9 3 13 13 10 25 -3 11
1 21 10 25 10 3 13 13 9 27 -5 20 -4 21 13 7 17 -14 17 -14 7 5 -8 16 -6 32
11 70 11 28 26 53 32 57 5 4 7 8 3 8 -7 0 26 99 42 128 13 23 32 73 37 97 2
10 9 23 16 27 6 4 8 8 3 8 -4 0 -1 11 8 25 9 14 15 25 12 25 -2 0 2 17 10 38
7 20 16 36 21 35 4 -1 9 12 9 29 1 17 7 34 13 38 7 4 12 9 10 11 -5 9 33 109
40 105 4 -3 7 4 6 16 -1 12 7 38 17 59 10 21 18 43 18 49 0 6 3 9 8 7 4 -3 8
7 9 21 0 15 6 28 12 30 6 2 9 7 6 11 -2 5 11 46 30 92 19 46 35 90 35 97 0 6
5 12 11 12 6 0 9 6 6 14 -3 7 0 19 6 25 6 6 12 21 14 33 2 12 8 25 14 29 6 3
10 10 10 15 -1 12 18 71 39 119 10 22 26 61 36 88 13 32 23 45 33 42 11 -4 11
-3 2 9 -9 10 -9 20 -2 33 5 10 24 57 42 105 18 52 36 85 42 81 6 -4 7 -1 2 6
-4 7 -3 23 3 34 19 43 35 82 37 92 3 12 38 99 66 161 10 23 21 55 25 70 4 16
21 58 37 94 17 36 32 72 33 80 2 8 14 42 28 75 19 46 29 59 43 57 17 -2 17 -2
1 8 -14 9 -15 15 -6 35 6 13 15 22 19 19 5 -3 6 1 3 9 -3 8 3 32 12 53 19 42
21 49 23 65 0 5 6 7 13 3 6 -4 8 -3 5 3 -8 13 12 85 22 79 4 -3 7 5 8 17 1 12
4 31 8 42 6 19 2 20 -92 18 -54 -1 -105 -2 -113 -2 -9 -1 -22 -18 -29 -38 -8
-21 -22 -56 -31 -78 -10 -22 -60 -146 -110 -275 -51 -129 -95 -239 -98 -245
-4 -5 -7 -14 -8 -20 -2 -10 -108 -285 -124 -320 -8 -18 -141 -353 -346 -875
-36 -91 -71 -178 -78 -195 -8 -16 -17 -41 -21 -55 -4 -14 -16 -43 -25 -65 -10
-22 -41 -101 -70 -175 -29 -74 -61 -154 -71 -177 -11 -23 -19 -44 -19 -47 0
-2 -5 -17 -12 -33 -6 -15 -12 -30 -13 -33 -1 -3 -7 -18 -13 -33 -7 -16 -12
-33 -12 -38 0 -6 -5 -7 -12 -3 -7 4 -8 3 -4 -4 4 -6 -2 -32 -14 -56 -11 -25
-20 -50 -20 -55 0 -6 -4 -11 -8 -11 -5 0 -9 -6 -9 -13 0 -7 -8 -37 -18 -65
-14 -37 -23 -51 -33 -47 -12 4 -12 2 -3 -9 13 -16 4 -49 -12 -39 -5 3 -7 1 -3
-5 3 -6 1 -23 -6 -39 -6 -15 -12 -30 -13 -33 -18 -69 -55 -141 -68 -134 -9 5
-9 4 0 -6 11 -12 -6 -68 -36 -120 -5 -9 -12 -30 -16 -48 -3 -18 -11 -30 -16
-27 -5 4 -6 -1 -3 -9 3 -9 1 -16 -6 -16 -6 0 -9 -4 -5 -10 3 -5 1 -17 -4 -27
-15 -26 -121 -301 -121 -313 0 -6 -5 -10 -11 -10 -5 0 -8 -4 -5 -8 2 -4 -5
-28 -16 -52 -12 -25 -22 -51 -24 -58 -1 -8 -6 -21 -10 -30 -7 -17 -10 -26 -13
-38 0 -4 -7 -1 -15 5 -10 8 -16 9 -21 1 -4 -6 -1 -9 6 -8 19 4 22 -27 5 -45
-8 -8 -13 -17 -10 -19 6 -7 -37 -118 -45 -114 -3 2 -6 -8 -7 -22 -1 -15 -10
-47 -22 -72 -11 -25 -28 -66 -37 -92 -10 -27 -22 -45 -28 -41 -5 3 -7 1 -4 -4
8 -13 -22 -105 -32 -99 -4 3 -8 -4 -9 -15 -4 -43 -6 -48 -15 -42 -5 3 -7 14
-4 24 3 11 1 17 -4 13 -8 -4 -10 6 -9 31 1 3 -6 13 -15 21 -8 9 -15 25 -15 38
0 12 -4 26 -8 31 -8 9 -75 169 -78 188 -1 4 -3 10 -4 15 -1 4 -2 10 -1 15 0 4
-4 7 -9 7 -5 0 -9 3 -8 8 1 4 -4 18 -9 32 -46 107 -85 208 -86 223 -1 9 -5 17
-9 17 -4 0 -8 8 -8 18 0 10 -4 22 -9 27 -14 17 -61 147 -55 156 3 5 1 9 -5 9
-9 0 -35 63 -36 86 0 6 -5 18 -11 25 -19 24 -23 47 -11 53 7 2 4 5 -7 5 -13 1
-17 6 -13 21 3 11 1 18 -4 14 -5 -3 -9 1 -9 10 0 8 3 16 8 19 4 2 2 2 -5 1
-14 -3 -25 24 -16 39 3 7 2 9 -2 4 -10 -9 -36 63 -28 77 3 6 3 8 -2 4 -11 -10
-67 130 -59 144 4 7 2 8 -4 4 -7 -4 -12 -1 -12 7 0 8 -7 28 -16 46 -9 18 -14
35 -11 38 4 3 -1 12 -9 20 -8 8 -12 19 -9 24 4 5 2 9 -3 9 -8 0 -34 71 -32 86
1 4 -4 11 -12 15 -11 7 -10 11 2 19 13 8 13 10 -1 10 -19 0 -32 37 -15 44 6 2
3 5 -8 5 -13 1 -16 6 -12 18 4 10 4 14 -1 10 -10 -10 -45 92 -36 107 3 6 2 7
-2 3 -11 -10 -68 131 -59 145 5 7 2 8 -6 3 -10 -6 -12 -3 -8 13 4 12 2 20 -2
17 -4 -3 -13 9 -19 25 -5 17 -8 30 -5 30 3 0 -2 7 -11 17 -10 9 -15 26 -12 39
2 13 1 21 -3 19 -11 -7 -33 52 -24 66 4 7 3 10 -4 5 -13 -8 -26 29 -16 45 4 7
3 9 -3 6 -12 -7 -35 62 -26 76 3 6 1 7 -5 3 -6 -3 -15 9 -22 31 -7 21 -16 43
-20 48 -4 6 -10 18 -13 27 -4 13 -2 16 11 12 9 -2 7 1 -6 7 -13 7 -21 18 -18
26 3 7 1 13 -5 13 -6 0 -7 5 -4 10 4 6 12 7 18 4 7 -4 8 -3 4 2 -5 5 -14 9
-20 9 -9 0 -46 85 -103 239 -8 21 -21 51 -30 67 -8 16 -14 30 -13 31 1 2 -6
20 -15 42 -9 21 -16 42 -16 46 0 4 -7 21 -16 38 -8 18 -12 37 -8 43 4 8 3 9
-4 5 -11 -6 -17 12 -13 37 0 4 -4 7 -10 7 -6 0 -9 7 -5 15 3 8 1 15 -5 15 -6
0 -7 5 -4 10 3 6 2 10 -3 10 -5 0 -15 19 -21 43 -7 23 -18 48 -23 55 -7 8 -7
17 2 27 11 13 10 14 -2 10 -11 -4 -18 2 -23 22 -5 15 -8 31 -7 36 1 4 -3 7
-10 7 -6 0 -8 3 -5 7 4 3 3 11 -2 17 -4 6 -20 45 -35 86 -15 41 -32 84 -37 95
-4 11 -10 27 -11 35 -2 8 -7 18 -11 21 -5 4 -10 18 -10 32 -1 14 -5 24 -8 22
-9 -6 -31 64 -23 76 4 7 3 9 -3 6 -13 -8 -36 50 -26 66 3 6 1 7 -5 3 -11 -6
-15 5 -11 30 0 4 -4 10 -10 14 -6 3 -13 16 -16 28 -2 12 -7 28 -12 35 -4 6 -8
14 -9 17 0 3 -6 19 -13 35 -32 76 -43 112 -43 132 0 13 -3 21 -7 19 -4 -3 -12
7 -18 22 -30 74 -35 93 -29 107 3 9 2 13 -4 10 -6 -4 -19 15 -30 40 -23 55
-24 58 -7 50 6 -4 4 0 -7 9 -10 8 -19 26 -20 39 0 14 -4 23 -8 20 -7 -4 -12
20 -9 40 0 4 -4 7 -10 7 -5 0 -7 5 -4 10 3 6 1 10 -5 10 -7 0 -10 6 -8 12 3 7
-1 19 -9 26 -7 8 -11 18 -8 23 4 5 -1 9 -9 10 -55 3 -166 4 -193 1z"/>
<path d="M3173 7822 c-35 -4 -36 1 4 -91 9 -18 16 -39 18 -45 1 -6 7 -24 14
-41 35 -86 60 -152 63 -165 2 -8 6 -17 10 -20 3 -3 8 -14 10 -25 1 -11 6 -22
9 -25 12 -11 39 -92 34 -101 -4 -5 -2 -9 3 -9 5 0 15 -15 22 -32 7 -18 18 -46
25 -62 7 -16 12 -38 10 -48 -2 -10 0 -16 4 -13 12 7 23 -24 14 -37 -4 -7 -1
-8 7 -3 10 6 12 4 7 -8 -3 -9 -2 -19 4 -23 6 -3 8 -13 5 -21 -3 -8 -2 -12 3
-9 5 4 16 -14 24 -39 9 -25 13 -45 9 -45 -4 0 -2 -4 4 -8 16 -11 45 -92 38
-105 -4 -7 -4 -9 1 -5 8 8 54 -92 58 -124 0 -10 5 -18 9 -18 4 0 8 -6 8 -13 0
-7 10 -33 21 -57 12 -24 22 -54 23 -66 0 -12 3 -21 6 -19 7 4 57 -138 52 -144
-2 -2 0 -7 5 -10 15 -11 34 -62 27 -73 -4 -7 -2 -8 4 -4 11 6 17 -12 13 -36 0
-5 4 -8 9 -8 6 0 10 -7 10 -16 0 -9 -5 -12 -12 -8 -7 4 -8 3 -4 -5 4 -6 11 -9
15 -7 11 7 34 -62 25 -75 -4 -7 -3 -9 4 -6 12 8 75 -150 65 -165 -3 -6 -2 -8
4 -5 9 5 109 -244 104 -259 -2 -4 1 -10 6 -13 14 -10 34 -62 28 -72 -4 -5 -2
-9 4 -9 9 0 47 -98 43 -112 -1 -5 2 -8 8 -8 6 0 10 -3 9 -7 -1 -5 2 -18 6 -30
4 -12 7 -26 8 -30 0 -4 7 -14 14 -22 8 -7 12 -20 9 -27 -3 -8 -1 -14 4 -14 6
0 10 -8 10 -18 0 -10 4 -22 8 -28 18 -21 53 -124 46 -135 -4 -7 -3 -9 4 -5 6
3 13 -4 17 -16 7 -24 13 -40 40 -101 9 -20 13 -43 9 -50 -4 -6 -3 -9 1 -4 5 4
14 -7 21 -25 6 -18 22 -58 34 -88 12 -30 22 -59 24 -65 1 -5 8 -20 14 -33 7
-12 10 -26 7 -31 -3 -5 -1 -11 3 -13 5 -1 28 -52 51 -113 24 -60 49 -123 56
-140 44 -101 74 -188 69 -197 -4 -6 -2 -8 3 -5 6 4 14 -5 18 -21 7 -27 29 -82
46 -115 5 -10 7 -22 4 -27 -4 -6 -1 -10 5 -10 7 0 10 -6 8 -12 -3 -7 2 -19 9
-27 8 -7 12 -19 9 -27 -3 -7 0 -14 5 -16 6 -2 12 -15 12 -30 1 -14 4 -24 6
-22 5 5 52 -104 54 -126 1 -8 4 -17 8 -20 3 -3 14 -27 25 -53 18 -46 36 -59
40 -27 3 33 37 100 47 93 6 -3 7 -1 3 5 -4 6 -3 19 2 29 50 98 61 136 41 148
-6 4 -8 13 -5 21 3 8 1 14 -5 14 -6 0 -8 7 -5 16 3 8 2 13 -2 10 -5 -3 -19 27
-33 66 -13 38 -27 72 -31 75 -5 2 -8 15 -8 29 0 13 -4 24 -10 24 -5 0 -10 8
-10 18 0 10 -5 23 -12 30 -8 8 -8 15 2 27 10 12 11 18 1 28 -10 9 -11 8 -6 -5
4 -10 3 -18 -3 -18 -6 0 -14 15 -18 32 -3 18 -13 43 -21 55 -9 13 -13 32 -10
43 3 11 2 18 -3 15 -7 -5 -26 33 -32 65 -2 8 -6 17 -9 20 -6 5 -59 134 -64
155 -1 5 -9 26 -18 45 -8 19 -13 38 -11 42 3 5 0 8 -7 8 -6 0 -9 8 -6 20 3 11
1 18 -3 15 -5 -3 -14 12 -20 32 -7 21 -16 43 -20 48 -4 6 -6 23 -4 40 2 18 0
25 -5 17 -6 -11 -10 -10 -15 3 -3 9 -3 22 1 27 3 7 1 8 -5 4 -8 -4 -12 0 -12
11 0 11 -5 24 -12 31 -8 8 -8 15 1 26 9 11 9 16 0 22 -8 4 -9 3 -5 -4 4 -7 2
-12 -3 -12 -10 0 -15 15 -8 23 1 2 -4 11 -11 19 -10 13 -10 17 0 21 10 4 10 6
0 6 -10 1 -33 40 -36 63 -1 3 -4 10 -8 14 -14 13 -9 27 5 15 10 -8 14 -7 14 4
0 8 -4 12 -8 9 -11 -6 -40 26 -34 37 4 5 1 9 -6 9 -7 0 -10 3 -7 6 4 3 -3 25
-13 50 -11 24 -17 49 -13 56 4 6 3 8 -3 5 -6 -4 -16 13 -23 36 -8 23 -21 53
-29 67 -9 13 -15 24 -13 25 3 0 -3 21 -16 55 -3 8 -4 21 -3 29 1 8 -2 10 -10
5 -9 -5 -11 -1 -7 14 4 14 2 20 -5 15 -6 -4 -8 2 -4 16 3 13 3 20 0 17 -4 -3
-15 13 -25 36 -15 33 -16 43 -6 50 9 5 8 8 -6 8 -12 0 -16 5 -12 16 3 8 2 12
-4 9 -6 -3 -10 3 -10 14 0 11 -4 23 -10 26 -5 3 -10 17 -10 30 0 13 -5 27 -11
31 -6 3 -8 15 -6 26 3 11 3 17 -1 14 -3 -4 -14 10 -24 30 -14 29 -15 40 -6 51
8 10 8 17 -1 26 -10 9 -11 8 -6 -5 4 -10 3 -18 -3 -18 -10 0 -28 56 -24 73 1
4 -3 7 -9 7 -6 0 -9 9 -6 20 3 11 2 18 -2 15 -11 -6 -73 154 -65 167 4 7 2 8
-4 4 -7 -4 -12 -1 -12 7 0 7 -9 33 -21 56 -11 24 -18 49 -15 57 3 8 2 13 -3
10 -5 -3 -12 2 -15 11 -4 9 -1 20 6 25 10 6 9 8 -4 8 -16 0 -42 53 -31 64 4 3
1 6 -6 6 -8 0 -11 7 -7 15 3 8 1 15 -3 15 -16 0 -30 57 -18 70 9 9 9 11 -2 8
-8 -2 -23 22 -41 65 -15 37 -26 67 -24 67 3 0 -3 11 -12 25 -12 19 -13 25 -3
25 9 0 8 4 -3 13 -13 10 -70 143 -80 187 -2 8 -5 17 -8 20 -4 4 -35 77 -68
159 -4 10 -1 12 9 6 8 -4 4 2 -9 14 -18 18 -21 26 -11 37 10 12 9 13 -6 8 -12
-5 -16 -4 -11 4 3 6 2 13 -4 17 -5 3 -10 15 -10 26 0 13 4 18 12 13 7 -4 8 -3
4 5 -4 6 -12 9 -17 6 -5 -4 -12 2 -15 12 -3 10 -11 29 -16 43 -6 14 -15 35
-19 48 -5 12 -14 32 -19 45 -6 12 -12 32 -13 45 0 12 -4 22 -8 22 -4 0 -13 17
-19 38 -30 91 -49 122 -78 123 -15 0 -52 1 -82 2 -30 1 -69 1 -87 -1z"/>
<path d="M3608 7822 c-14 -3 -13 -8 4 -43 11 -23 17 -48 13 -57 -3 -9 -3 -13
1 -9 10 10 56 -103 49 -121 -2 -7 -1 -11 4 -8 11 7 42 -74 34 -87 -4 -6 -1 -7
7 -2 10 6 12 4 7 -8 -3 -10 -3 -17 2 -17 7 0 22 -48 20 -66 0 -4 5 -10 12 -14
7 -5 13 -16 14 -27 1 -10 6 -27 12 -38 27 -51 72 -178 67 -187 -4 -7 -2 -8 4
-4 8 5 12 0 12 -13 0 -12 5 -21 10 -21 6 0 9 -3 8 -7 -1 -5 13 -46 31 -93 19
-47 34 -91 34 -97 0 -7 5 -13 10 -13 5 0 7 -7 3 -15 -3 -8 -1 -15 5 -15 6 0 8
-7 5 -16 -3 -8 -2 -13 3 -10 7 5 35 -63 36 -89 0 -5 3 -12 6 -15 6 -6 119
-287 124 -310 2 -8 11 -30 20 -48 9 -18 18 -38 19 -45 1 -7 7 -21 12 -32 31
-58 75 -186 68 -196 -4 -7 -3 -9 3 -6 13 8 77 -159 67 -175 -4 -7 -3 -8 4 -4
11 7 16 -7 15 -41 -1 -7 3 -10 8 -7 5 3 10 0 10 -5 3 -21 4 -26 12 -38 5 -7 5
-18 1 -25 -5 -7 -3 -8 6 -3 10 6 12 4 7 -8 -3 -10 -3 -17 1 -17 4 0 13 -14 21
-31 12 -27 12 -36 1 -53 -12 -18 -11 -19 2 -8 13 10 18 5 33 -35 9 -27 23 -61
30 -78 20 -46 65 -158 65 -162 0 -2 -6 -1 -12 2 -7 4 -5 0 4 -7 9 -8 39 -72
66 -144 28 -71 59 -150 71 -176 11 -27 18 -48 15 -48 -2 0 3 -11 12 -24 8 -14
16 -29 16 -33 0 -9 8 -31 32 -87 9 -21 13 -42 10 -47 -3 -5 -1 -9 5 -9 5 0 13
-10 16 -22 4 -13 16 -43 27 -67 21 -47 29 -75 31 -103 1 -9 4 -15 8 -12 4 2
15 -20 24 -48 10 -29 21 -58 26 -64 5 -6 10 -19 12 -30 2 -10 9 -29 16 -42 7
-13 10 -30 7 -38 -3 -8 -2 -13 2 -10 7 4 14 -9 37 -69 7 -18 9 -18 12 -2 3 9
9 17 14 17 6 0 8 4 5 9 -9 14 5 42 17 34 5 -3 7 -2 4 4 -9 14 14 83 26 76 6
-3 7 -1 4 4 -8 13 12 75 27 85 6 4 8 8 5 8 -4 0 -3 16 1 35 4 19 4 35 0 35 -5
0 -7 9 -5 20 2 11 0 18 -5 15 -4 -3 -14 12 -20 32 -7 21 -17 43 -22 50 -5 7
-7 17 -3 23 3 5 2 10 -3 10 -8 0 -18 22 -27 60 0 3 -6 15 -13 28 -7 12 -10 22
-6 22 3 0 1 6 -5 13 -6 8 -8 17 -4 20 3 4 1 7 -6 7 -8 0 -10 7 -6 21 5 15 4
19 -4 15 -10 -7 -15 8 -14 41 1 7 -3 10 -8 7 -5 -3 -9 1 -9 9 0 8 -7 28 -16
45 -8 18 -12 37 -8 43 4 8 3 9 -4 5 -7 -4 -12 -1 -12 6 0 8 -9 31 -20 53 -11
22 -20 46 -20 55 0 8 -7 24 -15 34 -8 10 -12 23 -8 29 3 5 1 12 -5 16 -7 4
-13 16 -15 26 -2 11 -9 30 -15 43 -7 12 -10 22 -7 22 3 0 -3 12 -12 27 -10 15
-17 30 -17 33 1 3 -2 16 -7 28 -5 13 -6 29 -2 35 3 7 2 9 -2 4 -5 -4 -14 5
-20 20 -9 20 -9 30 -1 35 7 5 4 8 -6 8 -16 0 -22 13 -21 47 1 7 -3 11 -7 8 -4
-3 -11 7 -16 23 -10 35 -9 33 -21 62 -6 14 -27 68 -48 120 -45 116 -55 140
-66 162 -5 10 -9 27 -9 38 0 11 -4 20 -9 20 -8 0 -25 53 -24 77 0 7 -3 10 -8
7 -5 -3 -9 1 -9 8 0 7 -7 26 -15 42 -9 16 -17 37 -19 45 -2 9 -7 25 -10 36 -4
11 -6 24 -6 29 1 5 -4 12 -10 16 -7 4 -13 19 -13 33 -1 14 -5 23 -8 22 -8 -6
-42 93 -35 104 4 5 1 13 -5 17 -8 5 -9 3 -4 -6 6 -9 4 -11 -4 -6 -7 5 -10 14
-7 22 3 8 1 14 -4 14 -6 0 -10 8 -10 18 0 10 -4 22 -9 27 -5 6 -11 19 -13 30
-1 11 -5 22 -9 25 -7 7 -79 189 -79 201 0 6 5 7 12 3 7 -5 8 -3 4 5 -5 7 -11
10 -14 6 -9 -9 -43 85 -36 97 4 7 2 8 -4 4 -11 -6 -15 5 -11 30 0 4 -4 10 -11
14 -6 4 -12 13 -14 21 -1 8 -12 37 -25 64 -13 28 -24 60 -24 72 -1 13 -5 23
-9 23 -5 0 -27 53 -34 83 -1 4 -3 10 -4 15 -1 4 -2 10 -1 15 0 4 -3 7 -8 7 -8
0 -24 50 -21 65 0 3 -6 13 -15 22 -9 8 -14 22 -11 29 3 8 2 14 -2 14 -4 0 -13
14 -19 30 -6 17 -8 28 -3 25 5 -3 12 -1 15 5 4 6 3 10 -2 9 -19 -3 -33 2 -33
12 0 5 6 7 13 4 6 -4 5 -1 -4 7 -19 16 -41 77 -32 91 3 6 1 7 -5 3 -7 -4 -13
-2 -13 3 -1 6 -3 14 -4 19 -12 35 -18 58 -16 61 2 2 -2 7 -9 11 -6 4 -12 13
-14 21 -1 8 -8 25 -15 37 -7 13 -10 26 -7 29 3 3 -2 12 -10 21 -12 11 -40 15
-113 16 -54 1 -105 0 -113 -2z"/>
<path d="M4067 7822 c-13 -3 -15 -7 -7 -23 6 -10 8 -19 5 -19 -3 0 1 -13 10
-30 9 -16 29 -67 46 -112 16 -46 37 -98 45 -116 8 -18 12 -38 8 -45 -4 -6 -4
-9 1 -5 5 5 19 -20 32 -55 28 -71 34 -86 58 -144 9 -23 14 -47 10 -54 -5 -7
-4 -10 1 -6 5 3 33 -56 63 -131 29 -76 62 -157 73 -182 11 -25 21 -55 22 -67
0 -12 3 -19 5 -17 3 2 20 -35 39 -83 18 -49 37 -97 43 -108 21 -47 38 -108 32
-118 -3 -5 -1 -7 4 -4 12 8 26 -20 17 -34 -3 -5 -1 -9 4 -9 14 0 45 -87 36
-102 -4 -7 -3 -9 1 -5 11 10 48 -81 39 -95 -4 -7 -2 -8 4 -4 8 5 12 0 12 -13
0 -11 4 -22 9 -25 5 -3 12 -18 16 -33 3 -15 15 -46 26 -70 10 -23 19 -45 19
-48 0 -4 6 -21 14 -38 33 -73 45 -110 39 -120 -3 -6 -1 -7 5 -3 7 4 12 1 12
-8 0 -9 11 -41 25 -72 14 -31 23 -60 20 -64 -3 -5 0 -10 6 -12 6 -2 12 -15 12
-30 1 -14 5 -25 8 -23 7 5 34 -65 33 -87 -1 -10 2 -16 6 -13 3 2 12 -13 19
-33 7 -20 17 -48 23 -62 6 -14 15 -36 21 -50 5 -14 13 -33 18 -42 5 -10 9 -26
9 -37 0 -11 5 -21 11 -23 6 -2 12 -16 12 -31 1 -15 5 -27 9 -27 3 0 12 -17 19
-37 6 -21 16 -44 21 -50 6 -7 8 -22 5 -33 -3 -11 -1 -18 3 -15 11 7 32 -54 23
-68 -3 -6 -1 -7 5 -3 7 4 13 2 13 -3 2 -16 4 -23 17 -54 7 -16 9 -34 5 -40 -3
-7 -2 -8 2 -4 5 4 17 -11 26 -35 9 -23 21 -44 28 -46 6 -2 11 0 10 5 -2 9 7
38 20 63 5 9 12 30 16 48 3 18 11 32 16 32 5 0 8 3 7 8 -3 15 23 92 32 92 5 0
6 7 3 17 -4 9 -2 14 3 10 5 -3 10 3 10 13 0 10 -3 17 -7 14 -11 -6 -32 54 -25
71 3 9 2 14 -3 11 -10 -7 -33 49 -24 58 4 3 0 6 -8 6 -11 0 -11 2 1 10 13 8
12 10 -4 10 -12 0 -16 5 -12 15 3 8 2 15 -2 15 -12 0 -43 91 -35 103 3 5 2 8
-3 4 -8 -5 -32 45 -59 123 -9 26 -28 73 -48 120 -47 109 -67 166 -62 179 3 9
3 12 -1 8 -10 -10 -56 112 -47 126 3 6 1 7 -5 3 -11 -6 -17 12 -13 37 0 4 -3
7 -8 7 -8 0 -12 10 -26 55 -2 6 -10 27 -19 48 -9 21 -14 43 -10 50 4 7 3 8 -1
4 -10 -9 -48 80 -40 93 3 4 -2 11 -10 14 -8 3 -14 9 -14 13 2 9 -7 35 -23 70
-6 11 -7 27 -3 34 5 7 4 10 -2 6 -13 -8 -47 78 -37 94 4 8 3 9 -4 5 -12 -7
-28 37 -23 63 1 7 -2 10 -8 6 -6 -3 -12 1 -12 9 -2 26 -3 29 -22 69 -10 20
-15 42 -11 49 4 7 3 8 -4 4 -7 -4 -14 4 -18 21 -3 15 -12 42 -19 58 -32 72
-68 169 -68 182 0 7 -5 13 -10 13 -5 0 -7 9 -4 20 3 11 2 18 -3 15 -7 -4 -35
59 -42 95 -2 8 -5 17 -8 20 -3 3 -11 18 -18 34 -11 24 -11 31 0 37 10 7 9 9
-4 9 -16 0 -42 53 -31 64 4 3 1 6 -5 6 -7 0 -12 8 -12 18 0 10 -4 22 -9 28
-16 18 -62 147 -57 161 3 8 1 11 -4 8 -9 -5 -15 15 -11 38 0 4 -2 7 -7 7 -4 0
-12 12 -18 28 -30 72 -39 98 -36 105 1 4 -3 7 -9 7 -5 0 -8 4 -5 9 3 4 -1 16
-8 26 -11 15 -29 18 -108 19 -52 1 -102 0 -111 -2z"/>
<path d="M6981 7820 c-7 -5 -73 -165 -142 -345 -23 -60 -45 -112 -48 -115 -3
-3 -8 -14 -9 -25 -2 -10 -12 -37 -22 -60 -17 -40 -34 -83 -65 -165 -14 -37
-27 -70 -41 -100 -1 -3 -5 -15 -9 -27 -4 -13 -12 -23 -17 -23 -5 0 -7 -4 -4
-9 5 -7 -131 -365 -154 -403 -5 -10 -10 -22 -10 -27 0 -5 -8 -26 -17 -47 -9
-22 -18 -43 -19 -49 -1 -5 -43 -113 -94 -240 -50 -126 -121 -304 -156 -395
-36 -91 -74 -185 -84 -210 -10 -25 -33 -83 -51 -130 -17 -47 -41 -105 -53
-130 -11 -25 -20 -47 -21 -50 -6 -35 -17 -60 -25 -55 -5 3 -7 0 -5 -8 7 -18
-29 -99 -40 -89 -5 4 -5 1 -1 -6 8 -14 -43 -154 -54 -147 -4 2 -6 -7 -4 -20 1
-14 -1 -25 -6 -25 -4 0 -10 -14 -14 -31 -3 -17 -10 -28 -16 -24 -5 3 -7 0 -4
-8 5 -15 -59 -188 -97 -259 -5 -10 -9 -23 -9 -30 0 -7 -6 -24 -13 -38 -7 -14
-24 -54 -36 -90 -13 -36 -30 -70 -37 -76 -8 -6 -11 -14 -8 -17 5 -5 -56 -170
-79 -212 -6 -11 -11 -24 -12 -30 -1 -21 -17 -55 -23 -51 -4 2 -8 -9 -8 -26 -1
-17 -5 -33 -10 -37 -5 -3 -10 -15 -12 -26 -2 -11 -10 -30 -18 -42 -8 -13 -12
-23 -8 -23 4 0 2 -6 -3 -12 -5 -7 -15 -32 -23 -55 -7 -23 -17 -40 -21 -37 -5
3 -6 -1 -3 -9 3 -8 -3 -34 -14 -58 -33 -77 -60 -143 -78 -191 -9 -27 -21 -45
-27 -41 -6 3 -7 1 -3 -6 9 -14 -14 -81 -28 -81 -5 0 -7 -3 -3 -6 9 -10 -14
-64 -26 -57 -6 3 -7 1 -3 -6 10 -15 -15 -82 -27 -74 -6 3 -7 1 -3 -5 8 -13
-43 -154 -53 -148 -3 2 -6 -6 -7 -17 0 -12 -10 -46 -22 -74 l-22 -53 28 -1
c15 0 53 0 85 1 41 1 57 -2 57 -12 0 -11 2 -11 9 0 4 8 16 12 27 10 11 -2 23
6 31 22 7 14 17 25 22 25 5 0 13 4 18 9 4 5 3 6 -4 2 -18 -10 -25 11 -9 27 8
8 13 17 10 20 -3 3 3 20 12 39 19 35 21 39 23 64 0 8 5 12 11 9 5 -3 7 0 4 8
-3 8 1 21 8 28 7 8 13 19 14 24 3 32 18 74 25 69 5 -3 6 1 3 9 -3 8 0 18 5 22
6 3 9 11 6 16 -4 5 -1 9 4 9 6 0 10 3 8 8 -4 13 56 161 64 157 4 -3 7 1 6 8
-1 34 4 48 15 41 7 -4 8 -3 4 4 -7 12 52 172 67 183 5 3 8 9 8 13 -3 22 0 36
10 36 5 0 7 -6 3 -12 -5 -9 -2 -9 9 1 19 15 22 22 8 18 -5 -1 -9 1 -10 6 -3
22 0 27 12 21 9 -6 9 -5 0 8 -15 18 -5 32 13 17 8 -7 14 -7 19 1 4 6 1 9 -7 8
-14 -3 -15 51 -1 61 4 3 10 15 11 26 2 11 7 25 11 30 4 6 13 29 21 53 7 23 17
42 22 42 4 0 7 3 6 8 -5 12 36 122 45 122 4 0 6 -4 3 -8 -3 -5 1 -9 9 -9 12 0
12 3 0 20 -12 17 -11 24 6 53 10 19 19 41 19 49 0 8 4 15 10 15 5 0 6 7 3 17
-5 12 -3 14 7 8 8 -5 11 -4 6 3 -8 14 11 62 32 79 9 8 11 12 5 8 -7 -3 -13 -1
-13 5 0 6 6 13 14 16 8 3 12 13 9 23 -2 10 2 25 11 33 8 9 12 18 9 22 -3 3 0
12 7 21 7 8 10 15 6 15 -4 0 1 11 10 24 8 14 16 29 16 33 0 4 5 19 11 33 6 14
11 28 12 33 2 4 4 9 5 12 1 3 3 8 5 13 6 22 20 49 34 66 9 11 10 16 4 12 -7
-4 -13 -2 -13 4 0 6 6 13 14 16 8 3 12 12 9 20 -3 8 0 14 7 14 6 0 8 4 5 10
-9 15 24 72 38 63 9 -5 9 -4 0 8 -9 11 -8 22 4 49 9 19 17 37 18 40 10 40 28
79 35 75 4 -3 6 5 2 17 -4 17 -2 20 13 14 14 -5 15 -3 8 6 -12 15 24 121 38
112 5 -3 6 2 3 10 -6 15 54 169 67 174 4 2 5 10 2 19 -4 10 -2 14 4 10 6 -4
11 -1 10 6 -1 32 4 48 13 42 5 -3 7 0 4 9 -4 11 1 14 23 12 15 -1 35 -6 43
-10 12 -7 13 -7 2 5 -7 8 -23 14 -34 14 -27 0 -33 18 -13 39 9 9 14 16 11 16
-8 0 46 144 57 151 5 4 6 13 2 20 -6 9 -4 11 8 6 9 -3 19 -2 22 4 4 5 3 8 -2
7 -13 -5 -15 5 -8 35 4 15 12 27 18 27 6 0 8 3 4 6 -8 8 13 64 25 64 5 0 7 4
3 9 -6 11 15 61 26 61 5 0 6 7 3 15 -4 8 -1 15 5 15 6 0 8 7 4 17 -5 12 -3 14
7 8 8 -5 11 -4 7 2 -7 11 13 83 23 83 3 0 7 10 7 22 1 13 8 27 15 33 7 5 14
19 15 30 1 11 10 38 19 60 10 22 18 42 19 45 0 6 23 66 36 95 33 79 42 101 44
110 1 10 9 28 40 100 10 22 19 42 20 45 22 71 30 90 38 90 6 0 7 3 4 6 -3 4
-1 16 5 28 7 11 13 27 14 34 1 8 6 21 10 30 4 9 8 19 9 22 1 3 8 19 15 35 7
17 14 32 15 35 8 35 39 111 46 115 5 4 9 15 9 26 0 10 5 19 11 19 5 0 8 4 5 8
-3 5 21 74 52 153 41 101 62 144 73 143 9 -1 16 4 16 11 0 7 -6 11 -14 8 -19
-7 -16 7 5 24 9 8 11 11 4 8 -11 -6 -12 -3 -3 14 7 11 17 21 24 21 8 0 9 3 1
8 -8 5 -7 17 3 40 12 30 16 32 31 21 12 -10 11 -7 -3 10 -17 21 -18 24 -2 18
9 -4 17 -2 17 3 0 6 -5 10 -11 10 -8 0 -8 4 -2 13 6 6 13 25 17 40 4 15 11 25
16 22 5 -3 7 1 4 9 -3 8 1 30 9 48 30 67 35 63 -85 63 -61 0 -113 -2 -117 -5z"/>
<path d="M7431 7815 c-4 -5 -13 -28 -20 -50 -8 -22 -23 -60 -34 -85 -23 -51
-21 -45 -31 -82 -5 -16 -13 -25 -19 -21 -6 3 -7 1 -3 -5 6 -10 -76 -232 -105
-284 -5 -10 -9 -22 -9 -27 0 -5 -6 -24 -14 -42 -8 -19 -14 -38 -14 -42 0 -4
-7 -18 -14 -30 -8 -12 -23 -48 -33 -79 -11 -32 -23 -58 -27 -58 -4 0 -7 -3 -6
-7 3 -16 -15 -63 -22 -58 -5 3 -6 -3 -3 -13 2 -11 -1 -25 -9 -33 -7 -8 -15
-23 -16 -34 -3 -16 -52 -143 -82 -210 -5 -11 -23 -58 -40 -105 -18 -47 -38
-98 -45 -115 -8 -16 -25 -59 -39 -95 -14 -36 -30 -78 -37 -95 -7 -16 -13 -32
-14 -35 -1 -3 -7 -18 -13 -33 -7 -16 -12 -30 -12 -31 0 -2 -8 -21 -17 -42 -17
-41 -20 -47 -22 -65 0 -5 -5 -7 -11 -4 -5 3 -7 0 -4 -8 3 -8 -4 -34 -15 -58
-11 -24 -41 -100 -67 -169 -27 -69 -52 -128 -57 -131 -5 -3 -8 -9 -7 -13 1 -4
-3 -19 -8 -34 -55 -147 -66 -171 -75 -165 -6 4 -7 1 -2 -6 4 -7 3 -23 -3 -34
-9 -19 -20 -46 -27 -67 -6 -16 -18 -48 -26 -65 -4 -11 -31 -78 -59 -150 -28
-71 -55 -139 -60 -150 -5 -11 -20 -49 -34 -85 -13 -36 -30 -78 -37 -95 -7 -16
-13 -32 -13 -35 -5 -20 -121 -307 -128 -315 -4 -5 -8 -16 -8 -25 0 -8 -6 -26
-13 -40 -7 -14 -24 -54 -37 -90 -13 -36 -26 -69 -30 -75 -4 -5 -19 -45 -34
-87 -17 -47 -32 -75 -39 -71 -6 3 -7 1 -3 -6 10 -16 -3 -53 -16 -45 -7 5 -8 2
-4 -5 8 -12 0 -38 -37 -121 -12 -25 -22 -49 -23 -55 -1 -5 -45 -119 -98 -253
-53 -134 -96 -245 -96 -248 0 -2 -8 -23 -19 -47 -39 -90 -44 -102 -47 -112 -1
-5 -20 -54 -42 -107 l-40 -98 52 0 c28 -1 81 -2 118 -3 38 -1 64 2 60 7 -3 5
2 7 11 3 9 -3 19 -2 22 4 4 5 3 8 -2 7 -12 -4 -14 14 -4 42 4 14 9 29 9 33 0
5 9 15 19 24 10 8 13 12 6 8 -9 -4 -10 2 -1 26 6 18 20 34 31 37 19 5 20 6 3
12 -17 6 -17 7 -2 23 10 9 15 17 12 17 -2 0 2 20 11 45 9 27 19 42 26 38 6 -4
8 0 4 10 -7 19 1 49 12 43 3 -2 7 9 7 26 1 17 5 33 10 37 5 3 15 17 22 30 11
18 11 21 1 15 -7 -4 -4 8 8 27 11 19 25 33 30 32 6 -1 19 8 29 20 18 21 18 21
0 7 -19 -15 -46 -22 -46 -13 0 3 8 12 18 20 10 8 11 11 2 7 -12 -6 -13 -5 -5
7 6 8 17 32 24 54 8 22 19 46 25 54 6 7 11 19 12 25 0 6 2 17 2 24 1 6 10 12
20 12 14 0 15 2 2 10 -12 7 -12 12 -2 22 6 6 12 18 12 25 0 7 9 32 19 56 21
45 35 90 32 96 -2 2 3 7 10 12 7 4 14 13 15 21 6 28 11 44 23 73 6 17 14 36
16 43 3 7 9 11 14 8 4 -3 7 6 5 19 -1 14 2 25 7 25 6 0 8 3 5 8 -2 4 2 22 10
40 9 23 18 31 26 26 9 -6 9 -3 -1 9 -9 12 -10 17 -2 17 7 0 9 4 6 10 -3 5 2
24 12 42 9 18 16 36 15 41 -1 4 3 7 8 7 5 0 9 3 8 8 -4 15 25 91 33 86 5 -3 6
2 3 11 -4 9 1 22 12 31 11 9 13 12 6 9 -11 -6 -12 -3 -2 14 6 12 15 19 20 16
5 -3 12 -1 15 5 4 6 1 9 -6 8 -6 -2 -14 3 -17 11 -3 9 0 12 9 9 10 -4 14 4 15
28 0 18 9 43 20 55 10 13 14 19 7 15 -8 -4 -7 2 2 21 8 15 15 34 15 41 0 9 7
11 23 7 18 -5 19 -4 5 5 -16 10 -16 13 -1 55 9 24 20 42 24 40 4 -3 7 1 6 8
-1 34 4 48 15 41 6 -4 8 -3 4 4 -3 6 -1 23 6 39 6 15 12 30 13 33 0 3 11 31
23 63 12 31 31 82 43 112 11 30 24 53 29 50 4 -3 6 5 2 17 -3 14 -1 19 6 14 8
-5 10 -1 5 10 -5 14 -3 16 12 11 15 -7 16 -5 5 9 -8 9 -10 18 -4 22 5 4 9 12
10 17 2 29 27 74 37 68 9 -5 8 -3 0 8 -16 20 -2 40 26 34 13 -2 20 -1 17 3 -4
4 -13 7 -19 7 -20 1 3 85 22 85 6 0 7 7 4 17 -4 11 -3 14 5 9 7 -4 10 -2 7 7
-3 7 2 31 12 53 9 21 16 42 15 47 -1 4 4 7 12 7 8 0 18 4 21 10 3 6 -1 7 -10
4 -13 -5 -14 -2 -6 17 5 13 12 32 15 43 5 16 9 16 23 5 15 -13 15 -12 4 6 -10
16 -10 26 0 50 7 17 13 32 14 35 9 26 21 47 34 58 9 8 10 11 4 7 -7 -3 -13 -1
-13 4 0 6 5 11 10 11 6 0 9 3 8 8 -1 4 4 23 11 42 8 19 15 40 16 45 2 6 9 24
16 40 7 17 13 32 14 35 1 3 5 14 10 25 4 11 14 35 21 53 9 23 18 31 26 26 10
-6 10 -5 1 7 -9 12 -7 26 12 69 12 30 28 70 35 87 7 18 16 30 21 27 5 -3 6 1
4 8 -3 8 27 94 66 193 39 99 73 188 76 198 4 11 11 16 21 12 13 -5 13 -3 1 11
-11 14 -11 18 6 30 10 8 14 14 7 14 -6 0 -9 7 -6 15 4 8 11 12 17 8 6 -3 7 -1
3 6 -4 6 -3 17 2 24 10 12 12 18 12 38 0 5 5 7 12 3 7 -4 8 -3 4 4 -4 7 2 32
13 57 11 25 18 45 15 45 -2 0 5 18 16 40 11 22 18 40 14 40 -4 0 0 7 7 16 7 9
14 23 16 32 6 35 50 132 57 125 4 -4 4 0 0 10 -3 10 -1 18 5 18 26 3 30 4 37
11 3 4 -3 6 -15 3 -11 -2 -21 0 -21 6 0 5 4 9 8 9 4 0 8 10 9 22 1 11 7 24 13
28 7 4 11 10 10 14 -5 19 13 65 22 60 6 -4 8 -2 5 3 -6 9 23 90 76 213 6 14
11 27 11 30 1 3 4 10 7 15 4 6 9 23 13 38 4 15 11 25 16 22 5 -3 7 1 4 9 -3 8
0 24 6 36 6 12 9 24 6 27 -10 10 -218 8 -225 -2z"/>
<path d="M7890 7820 c-5 -3 -22 -41 -40 -85 -17 -44 -37 -93 -44 -110 -7 -16
-35 -86 -61 -155 -27 -69 -55 -130 -62 -136 -7 -6 -10 -14 -7 -17 8 -7 -27
-100 -40 -109 -6 -4 -8 -8 -4 -8 6 0 -22 -78 -52 -145 -5 -11 -27 -67 -49
-125 -22 -58 -48 -123 -57 -145 -10 -22 -19 -44 -20 -50 -1 -5 -34 -90 -73
-187 -39 -97 -71 -179 -71 -181 0 -3 -9 -26 -20 -51 -11 -26 -20 -48 -20 -51
0 -3 -10 -26 -21 -52 -11 -27 -39 -95 -61 -153 -22 -58 -46 -118 -53 -135 -14
-32 -28 -67 -29 -75 -9 -35 -61 -148 -67 -144 -5 3 -6 -1 -3 -9 8 -21 -73
-213 -88 -209 -10 3 -10 1 -1 -9 9 -9 8 -20 -6 -48 -11 -20 -24 -55 -31 -78
-7 -24 -17 -43 -22 -43 -5 0 -7 -4 -4 -8 2 -4 -2 -21 -9 -37 -8 -17 -32 -77
-55 -135 -22 -58 -45 -113 -50 -122 -6 -10 -10 -23 -10 -29 0 -6 -6 -25 -14
-42 -8 -18 -26 -63 -41 -102 -15 -38 -32 -76 -37 -82 -6 -7 -8 -13 -5 -13 4 0
-7 -30 -22 -67 -15 -38 -47 -118 -71 -180 -24 -62 -47 -110 -51 -107 -5 3 -6
-2 -3 -10 3 -8 0 -25 -7 -38 -13 -23 -15 -29 -18 -49 0 -5 -5 -7 -11 -4 -6 3
-7 -1 -4 -10 4 -8 1 -22 -6 -30 -7 -8 -9 -15 -6 -15 4 0 1 -10 -6 -22 -7 -13
-13 -25 -13 -28 -1 -3 -7 -18 -14 -35 -6 -16 -39 -101 -73 -187 -36 -92 -65
-155 -71 -151 -6 3 -7 1 -3 -6 8 -12 -14 -82 -23 -76 -3 2 -7 -7 -7 -20 -1
-13 -9 -38 -18 -56 -9 -18 -16 -36 -16 -41 0 -5 -9 -28 -20 -50 -11 -23 -20
-45 -20 -49 0 -3 -7 -23 -15 -43 -8 -20 -14 -37 -13 -39 2 -2 -2 -10 -8 -18
-6 -8 -17 -31 -24 -52 -6 -20 -16 -35 -21 -32 -5 4 -6 -1 -3 -9 3 -8 -1 -30
-9 -48 -8 -18 -25 -60 -37 -93 -13 -33 -27 -65 -32 -71 -4 -6 -5 -14 -1 -17 3
-4 -2 -9 -11 -13 -9 -3 -14 -10 -11 -15 3 -4 -1 -25 -10 -45 -8 -20 -15 -38
-15 -40 0 -2 20 -4 45 -4 29 0 45 -4 45 -12 0 -9 4 -8 10 2 8 13 13 13 31 2
14 -9 19 -10 14 -2 -6 9 6 11 43 9 36 -3 48 -1 45 9 -3 6 -1 12 4 12 5 0 9 10
10 22 1 11 6 24 10 27 4 3 8 11 8 16 0 13 57 159 64 165 3 3 7 12 9 21 6 36
49 129 57 122 4 -5 5 -3 1 4 -6 12 26 107 34 99 3 -2 6 6 6 19 1 13 9 38 18
56 9 18 16 38 16 46 0 8 5 11 12 7 6 -4 8 -3 5 4 -9 14 3 43 14 36 5 -3 7 1 4
8 -7 17 31 114 43 111 6 -1 16 5 24 15 12 15 11 16 -4 3 -16 -12 -18 -11 -18
6 0 10 4 23 8 28 5 6 15 29 22 53 7 23 17 42 21 42 5 0 6 6 4 13 -7 18 9 38
32 40 11 0 20 7 20 14 0 10 -4 10 -11 3 -19 -19 -25 -10 -15 20 6 16 15 28 19
25 4 -3 6 5 2 17 -4 16 -2 19 8 13 8 -5 11 -4 6 3 -3 6 6 41 21 79 15 37 27
71 25 76 -1 4 3 7 8 7 5 0 9 3 8 8 -3 14 14 62 23 62 5 0 5 8 2 17 -5 13 -3
15 13 9 14 -5 16 -4 7 4 -12 13 0 53 32 111 8 14 12 29 8 33 -3 3 -2 6 3 6 5
0 10 10 11 22 1 11 7 24 13 28 7 4 10 9 9 11 -1 2 3 20 11 39 7 19 12 38 11
43 0 4 4 7 10 7 5 0 8 4 5 9 -6 9 18 64 25 57 2 -3 5 5 5 17 2 28 65 190 77
198 5 4 6 12 3 18 -4 6 0 11 11 12 10 0 13 3 6 5 -7 3 -9 12 -6 20 3 7 10 11
16 7 6 -3 7 -1 3 6 -10 16 3 53 16 45 7 -4 8 -2 4 5 -8 12 41 151 57 162 5 3
9 10 8 15 -1 20 12 54 20 54 5 0 6 7 3 15 -4 10 0 15 12 15 16 0 17 2 4 10 -9
6 -11 10 -3 10 7 0 10 7 6 17 -4 11 -3 14 5 9 8 -4 10 -2 6 7 -3 8 0 18 5 22
6 3 9 11 6 16 -4 5 -1 9 6 9 7 0 10 2 7 6 -9 8 30 99 41 97 6 -2 8 4 4 13 -3
8 -1 25 5 37 17 35 25 61 23 70 -1 5 4 5 10 1 8 -5 10 -2 6 8 -3 9 1 26 10 37
8 12 13 25 9 28 -3 3 3 13 12 22 10 9 12 12 4 7 -11 -8 -11 -5 0 20 7 16 20
35 28 42 9 8 10 11 2 7 -11 -6 -12 -3 -4 11 6 11 31 76 57 146 26 70 51 125
55 123 5 -3 6 5 2 17 -3 14 -1 19 6 14 8 -4 10 -2 6 7 -3 8 0 18 5 22 6 3 9
11 6 16 -4 5 -1 9 4 9 6 0 10 3 9 8 -4 13 23 82 30 78 4 -2 8 6 8 19 2 21 86
244 102 270 4 6 7 12 8 15 7 36 18 59 27 53 6 -4 7 -1 3 6 -9 14 13 73 24 66
5 -3 6 5 2 17 -4 16 -2 19 8 13 9 -5 11 -4 6 3 -4 7 -4 18 1 25 4 6 9 21 10
32 2 10 8 22 14 26 6 3 10 9 10 13 -3 18 0 27 7 23 4 -3 8 9 8 26 1 17 6 33
12 35 6 2 8 10 5 18 -5 13 8 19 30 15 5 -1 6 3 2 9 -3 6 -10 8 -15 5 -5 -3 -1
13 7 35 12 29 21 39 31 35 12 -4 13 -3 3 9 -8 9 -9 21 -5 28 5 7 9 15 10 18 7
38 19 60 33 60 13 0 13 2 2 9 -9 6 -10 11 -2 15 6 4 9 12 6 17 -4 5 -1 9 5 9
6 0 8 5 4 12 -5 8 -2 9 10 5 12 -5 15 -3 9 6 -10 16 -11 30 -2 42 6 9 25 57
71 177 6 15 15 25 21 21 6 -4 7 -1 2 6 -4 7 -3 23 3 34 11 23 46 118 56 150 4
11 11 15 17 11 8 -4 9 -3 5 5 -8 13 12 83 22 77 4 -2 8 9 8 26 1 17 7 34 13
38 7 4 12 10 12 14 -1 3 -1 7 0 9 0 1 3 13 5 27 l4 25 -106 0 c-58 0 -110 -2
-114 -5z"/>
<path d="M3475 7760 c-3 -5 -1 -10 4 -10 6 0 11 5 11 10 0 6 -2 10 -4 10 -3 0
-8 -4 -11 -10z"/>
<path d="M7210 7740 c0 -5 5 -10 11 -10 5 0 7 5 4 10 -3 6 -8 10 -11 10 -2 0
-4 -4 -4 -10z"/>
<path d="M8135 7720 c3 -5 8 -10 11 -10 2 0 4 5 4 10 0 6 -5 10 -11 10 -5 0
-7 -4 -4 -10z"/>
<path d="M4350 7700 c0 -5 5 -10 11 -10 5 0 7 5 4 10 -3 6 -8 10 -11 10 -2 0
-4 -4 -4 -10z"/>
<path d="M6753 7695 c0 -8 4 -12 9 -9 5 3 6 10 3 15 -9 13 -12 11 -12 -6z"/>
<path d="M3015 7689 c-4 -6 -5 -12 -2 -15 2 -3 7 2 10 11 7 17 1 20 -8 4z"/>
<path d="M8136 7687 c3 -10 9 -15 12 -12 3 3 0 11 -7 18 -10 9 -11 8 -5 -6z"/>
<path d="M8096 7682 c-3 -5 1 -9 9 -9 8 0 12 4 9 9 -3 4 -7 8 -9 8 -2 0 -6 -4
-9 -8z"/>
<path d="M2719 7653 c-13 -16 -12 -17 4 -4 9 7 17 15 17 17 0 8 -8 3 -21 -13z"/>
<path d="M6746 7661 c-3 -4 4 -7 14 -6 27 2 33 10 10 12 -11 1 -22 -2 -24 -6z"/>
<path d="M8174 7656 c1 -8 5 -18 8 -22 4 -3 5 1 4 10 -1 8 -5 18 -8 22 -4 3
-5 -1 -4 -10z"/>
<path d="M6709 7637 c6 -8 7 -18 3 -22 -4 -5 -1 -5 6 -1 10 6 10 11 1 22 -6 8
-14 14 -16 14 -3 0 0 -6 6 -13z"/>
<path d="M7619 7633 c-13 -17 -13 -17 6 -3 11 8 22 16 24 17 2 2 0 3 -6 3 -6
0 -17 -8 -24 -17z"/>
<path d="M8073 7635 c0 -8 4 -12 9 -9 5 3 6 10 3 15 -9 13 -12 11 -12 -6z"/>
<path d="M7686 7622 c-3 -5 1 -9 9 -9 8 0 12 4 9 9 -3 4 -7 8 -9 8 -2 0 -6 -4
-9 -8z"/>
<path d="M8110 7620 c0 -5 9 -8 20 -7 21 1 18 10 -5 13 -8 1 -15 -2 -15 -6z"/>
<path d="M3950 7599 c0 -5 5 -7 10 -4 6 3 10 8 10 11 0 2 -4 4 -10 4 -5 0 -10
-5 -10 -11z"/>
<path d="M7196 7598 c3 -5 10 -6 15 -3 13 9 11 12 -6 12 -8 0 -12 -4 -9 -9z"/>
<path d="M7633 7591 c0 -11 5 -18 9 -15 4 3 5 11 1 19 -7 21 -12 19 -10 -4z"/>
<path d="M8064 7602 c4 -3 14 -7 22 -8 9 -1 13 0 10 4 -4 3 -14 7 -22 8 -9 1
-13 0 -10 -4z"/>
<path d="M3980 7580 c-9 -6 -10 -10 -3 -10 6 0 15 5 18 10 8 12 4 12 -15 0z"/>
<path d="M4406 7582 c-3 -5 1 -9 9 -9 8 0 12 4 9 9 -3 4 -7 8 -9 8 -2 0 -6 -4
-9 -8z"/>
<path d="M7176 7567 c3 -10 9 -15 12 -12 3 3 0 11 -7 18 -10 9 -11 8 -5 -6z"/>
<path d="M6674 7555 c3 -23 12 -26 13 -5 1 11 -2 20 -7 20 -4 0 -7 -7 -6 -15z"/>
<path d="M7115 7561 c-3 -5 -2 -12 3 -15 5 -3 9 1 9 9 0 17 -3 19 -12 6z"/>
<path d="M4390 7557 c0 -2 6 -10 14 -16 11 -9 16 -9 22 1 4 7 4 10 -1 6 -4 -4
-14 -3 -22 3 -7 6 -13 9 -13 6z"/>
<path d="M7149 7543 c-13 -16 -12 -17 4 -4 9 7 17 15 17 17 0 8 -8 3 -21 -13z"/>
<path d="M7219 7548 c-5 -18 -6 -38 -1 -34 7 8 12 36 6 36 -2 0 -4 -1 -5 -2z"/>
<path d="M7560 7534 c-11 -12 -10 -18 5 -32 18 -16 18 -16 6 1 -11 14 -11 20
-1 32 7 8 10 15 7 15 -2 0 -10 -7 -17 -16z"/>
<path d="M7594 7506 c1 -8 5 -18 8 -22 4 -3 5 1 4 10 -1 8 -5 18 -8 22 -4 3
-5 -1 -4 -10z"/>
<path d="M3070 7505 c0 -7 30 -13 34 -7 3 4 -4 9 -15 9 -10 1 -19 0 -19 -2z"/>
<path d="M6673 7471 c0 -11 5 -18 9 -15 4 3 5 11 1 19 -7 21 -12 19 -10 -4z"/>
<path d="M7540 7486 c0 -2 8 -10 18 -17 15 -13 16 -12 3 4 -13 16 -21 21 -21
13z"/>
<path d="M3090 7460 c0 -5 5 -10 11 -10 5 0 7 5 4 10 -3 6 -8 10 -11 10 -2 0
-4 -4 -4 -10z"/>
<path d="M7100 7465 c0 -2 6 -8 13 -14 10 -8 14 -7 14 2 0 8 -6 14 -14 14 -7
0 -13 -1 -13 -2z"/>
<path d="M7587 7459 c7 -7 15 -10 18 -7 3 3 -2 9 -12 12 -14 6 -15 5 -6 -5z"/>
<path d="M3990 7446 c0 -2 7 -7 16 -10 8 -3 12 -2 9 4 -6 10 -25 14 -25 6z"/>
<path d="M4446 7442 c-3 -5 1 -9 9 -9 8 0 12 4 9 9 -3 4 -7 8 -9 8 -2 0 -6 -4
-9 -8z"/>
<path d="M4515 7441 c-3 -5 -2 -12 3 -15 5 -3 9 1 9 9 0 17 -3 19 -12 6z"/>
<path d="M7530 7441 c0 -6 4 -13 10 -16 6 -3 7 1 4 9 -7 18 -14 21 -14 7z"/>
<path d="M3579 7428 c-5 -18 -6 -38 -1 -34 7 8 12 36 6 36 -2 0 -4 -1 -5 -2z"/>
<path d="M7615 7420 c-3 -5 -1 -10 4 -10 6 0 11 5 11 10 0 6 -2 10 -4 10 -3 0
-8 -4 -11 -10z"/>
<path d="M7075 7410 c-4 -6 -10 -8 -14 -6 -4 3 -8 -1 -8 -9 0 -13 4 -12 19 2
18 16 22 23 14 23 -3 0 -8 -5 -11 -10z"/>
<path d="M6600 7405 c0 -2 6 -8 13 -14 10 -8 14 -7 14 2 0 8 -6 14 -14 14 -7
0 -13 -1 -13 -2z"/>
<path d="M7146 7398 c3 -5 10 -6 15 -3 13 9 11 12 -6 12 -8 0 -12 -4 -9 -9z"/>
<path d="M3130 7379 c0 -5 5 -7 10 -4 6 3 10 8 10 11 0 2 -4 4 -10 4 -5 0 -10
-5 -10 -11z"/>
<path d="M4490 7379 c0 -5 5 -7 10 -4 6 3 10 8 10 11 0 2 -4 4 -10 4 -5 0 -10
-5 -10 -11z"/>
<path d="M7107 7379 c7 -7 15 -10 18 -7 3 3 -2 9 -12 12 -14 6 -15 5 -6 -5z"/>
<path d="M7510 7375 c5 -7 8 -14 5 -17 -3 -2 2 -5 10 -5 10 0 12 4 5 12 -5 7
-8 14 -5 17 3 2 -2 5 -10 5 -10 0 -12 -4 -5 -12z"/>
<path d="M8013 7365 c0 -8 4 -12 9 -9 5 3 6 10 3 15 -9 13 -12 11 -12 -6z"/>
<path d="M7053 7354 c0 -9 4 -11 12 -4 7 5 14 9 16 7 2 -1 3 0 1 2 -7 11 -29
7 -29 -5z"/>
<path d="M7531 7327 c-8 -10 -7 -14 2 -14 8 0 14 6 14 14 0 7 -1 13 -2 13 -2
0 -8 -6 -14 -13z"/>
<path d="M3159 7313 c-13 -16 -12 -17 4 -4 16 13 21 21 13 21 -2 0 -10 -8 -17
-17z"/>
<path d="M7075 7319 c-3 -4 2 -6 10 -5 21 3 28 13 10 13 -9 0 -18 -4 -20 -8z"/>
<path d="M6650 7299 c0 -5 5 -7 10 -4 6 3 10 8 10 11 0 2 -4 4 -10 4 -5 0 -10
-5 -10 -11z"/>
<path d="M7920 7295 c-7 -9 -11 -17 -9 -20 3 -2 10 5 17 15 14 24 10 26 -8 5z"/>
<path d="M4060 7286 c0 -2 8 -10 18 -17 15 -13 16 -12 3 4 -13 16 -21 21 -21
13z"/>
<path d="M7513 7275 c0 -8 4 -12 9 -9 4 3 8 9 8 15 0 5 -4 9 -8 9 -5 0 -9 -7
-9 -15z"/>
<path d="M3150 7259 c0 -5 5 -7 10 -4 6 3 10 8 10 11 0 2 -4 4 -10 4 -5 0 -10
-5 -10 -11z"/>
<path d="M6659 7268 c-5 -18 -6 -38 -1 -34 7 8 12 36 6 36 -2 0 -4 -1 -5 -2z"/>
<path d="M6996 7253 c-6 -14 -5 -15 5 -6 7 7 10 15 7 18 -3 3 -9 -2 -12 -12z"/>
<path d="M7474 7248 l-19 -23 23 19 c21 18 27 26 19 26 -2 0 -12 -10 -23 -22z"/>
<path d="M7929 7243 c-13 -16 -12 -17 4 -4 9 7 17 15 17 17 0 8 -8 3 -21 -13z"/>
<path d="M3665 7240 c-3 -6 1 -7 9 -4 18 7 21 14 7 14 -6 0 -13 -4 -16 -10z"/>
<path d="M6980 7226 c0 -2 8 -10 18 -17 15 -13 16 -12 3 4 -13 16 -21 21 -21
13z"/>
<path d="M7907 7219 c7 -7 15 -10 18 -7 3 3 -2 9 -12 12 -14 6 -15 5 -6 -5z"/>
<path d="M7455 7209 c-4 -6 -5 -12 -2 -15 2 -3 7 2 10 11 7 17 1 20 -8 4z"/>
<path d="M7033 7195 c0 -8 4 -12 9 -9 4 3 8 9 8 15 0 5 -4 9 -8 9 -5 0 -9 -7
-9 -15z"/>
<path d="M7893 7195 c0 -8 4 -12 9 -9 5 3 6 10 3 15 -9 13 -12 11 -12 -6z"/>
<path d="M7934 7198 c-4 -7 -4 -10 1 -6 4 4 15 2 24 -5 14 -11 14 -10 2 6 -16
20 -18 21 -27 5z"/>
<path d="M6510 7182 c0 -5 7 -9 15 -9 8 0 12 4 9 9 -3 4 -9 8 -15 8 -5 0 -9
-4 -9 -8z"/>
<path d="M4595 7169 c-4 -6 -5 -12 -2 -15 2 -3 7 2 10 11 7 17 1 20 -8 4z"/>
<path d="M6553 7165 c0 -8 4 -12 9 -9 5 3 6 10 3 15 -9 13 -12 11 -12 -6z"/>
<path d="M7414 7169 c-3 -6 -2 -15 3 -20 5 -5 9 -1 9 11 0 23 -2 24 -12 9z"/>
<path d="M6955 7160 c-3 -5 -1 -10 4 -10 6 0 11 5 11 10 0 6 -2 10 -4 10 -3 0
-8 -4 -11 -10z"/>
<path d="M7035 7160 c3 -5 8 -10 11 -10 2 0 4 5 4 10 0 6 -5 10 -11 10 -5 0
-7 -4 -4 -10z"/>
<path d="M7470 7140 c0 -5 5 -10 11 -10 5 0 7 5 4 10 -3 6 -8 10 -11 10 -2 0
-4 -4 -4 -10z"/>
<path d="M6530 7136 c0 -2 8 -10 18 -17 15 -13 16 -12 3 4 -13 16 -21 21 -21
13z"/>
<path d="M7416 7113 c-6 -14 -5 -15 5 -6 7 7 10 15 7 18 -3 3 -9 -2 -12 -12z"/>
<path d="M7871 7107 c-8 -10 -7 -14 2 -14 8 0 14 6 14 14 0 7 -1 13 -2 13 -2
0 -8 -6 -14 -13z"/>
<path d="M4614 7096 c1 -8 5 -18 8 -22 4 -3 5 1 4 10 -1 8 -5 18 -8 22 -4 3
-5 -1 -4 -10z"/>
<path d="M6985 7100 c-3 -6 1 -7 9 -4 18 7 21 14 7 14 -6 0 -13 -4 -16 -10z"/>
<path d="M6496 7082 c-3 -5 1 -9 9 -9 8 0 12 4 9 9 -3 4 -7 8 -9 8 -2 0 -6 -4
-9 -8z"/>
<path d="M7026 7078 c3 -5 10 -6 15 -3 13 9 11 12 -6 12 -8 0 -12 -4 -9 -9z"/>
<path d="M7389 7077 c6 -8 9 -16 6 -19 -3 -2 2 -5 10 -5 13 0 13 3 -2 19 -19
21 -31 25 -14 5z"/>
<path d="M7430 7086 c0 -2 7 -7 16 -10 8 -3 12 -2 9 4 -6 10 -25 14 -25 6z"/>
<path d="M6575 7060 c3 -5 8 -10 11 -10 2 0 4 5 4 10 0 6 -5 10 -11 10 -5 0
-7 -4 -4 -10z"/>
<path d="M7935 7060 c3 -5 8 -10 11 -10 2 0 4 5 4 10 0 6 -5 10 -11 10 -5 0
-7 -4 -4 -10z"/>
<path d="M6490 7056 c0 -2 8 -10 18 -17 15 -13 16 -12 3 4 -13 16 -21 21 -21
13z"/>
<path d="M6535 7049 c-4 -6 -5 -12 -2 -15 2 -3 7 2 10 11 7 17 1 20 -8 4z"/>
<path d="M6916 7047 c3 -10 9 -15 12 -12 3 3 0 11 -7 18 -10 9 -11 8 -5 -6z"/>
<path d="M3739 7028 c-5 -18 -6 -38 -1 -34 7 8 12 36 6 36 -2 0 -4 -1 -5 -2z"/>
<path d="M7356 7021 c-3 -4 4 -17 17 -27 22 -19 22 -19 4 2 -9 11 -14 24 -10
27 3 4 4 7 0 7 -3 0 -8 -4 -11 -9z"/>
<path d="M7835 7020 c-3 -5 -1 -10 4 -10 6 0 11 5 11 10 0 6 -2 10 -4 10 -3 0
-8 -4 -11 -10z"/>
<path d="M7915 7021 c-3 -5 -2 -12 3 -15 5 -3 9 1 9 9 0 17 -3 19 -12 6z"/>
<path d="M3315 7009 c-4 -6 -5 -12 -2 -15 2 -3 7 2 10 11 7 17 1 20 -8 4z"/>
<path d="M7415 7000 c3 -5 8 -10 11 -10 2 0 4 5 4 10 0 6 -5 10 -11 10 -5 0
-7 -4 -4 -10z"/>
<path d="M6437 6983 c-9 -8 12 -33 27 -33 6 0 3 5 -7 11 -9 6 -15 14 -12 20 7
10 2 12 -8 2z"/>
<path d="M6470 6976 c7 -7 13 -7 20 0 6 6 3 10 -10 10 -13 0 -16 -4 -10 -10z"/>
<path d="M7456 6982 c-2 -4 -1 -14 4 -22 7 -11 9 -9 7 8 -1 24 -3 26 -11 14z"/>
<path d="M6895 6969 c-4 -6 -5 -12 -2 -15 2 -3 7 2 10 11 7 17 1 20 -8 4z"/>
<path d="M7346 6962 c-3 -5 1 -9 9 -9 8 0 12 4 9 9 -3 4 -7 8 -9 8 -2 0 -6 -4
-9 -8z"/>
<path d="M7380 6966 c0 -2 8 -10 18 -17 15 -13 16 -12 3 4 -13 16 -21 21 -21
13z"/>
<path d="M3906 6938 c3 -5 10 -6 15 -3 13 9 11 12 -6 12 -8 0 -12 -4 -9 -9z"/>
<path d="M4210 6940 c0 -5 5 -10 11 -10 5 0 7 5 4 10 -3 6 -8 10 -11 10 -2 0
-4 -4 -4 -10z"/>
<path d="M6420 6946 c0 -2 8 -10 18 -17 15 -13 16 -12 3 4 -13 16 -21 21 -21
13z"/>
<path d="M6536 6938 c3 -5 10 -6 15 -3 13 9 11 12 -6 12 -8 0 -12 -4 -9 -9z"/>
<path d="M6966 6942 c-3 -5 1 -9 9 -9 8 0 12 4 9 9 -3 4 -7 8 -9 8 -2 0 -6 -4
-9 -8z"/>
<path d="M7890 6941 c0 -6 4 -13 10 -16 6 -3 7 1 4 9 -7 18 -14 21 -14 7z"/>
<path d="M6879 6915 c-1 -3 -2 -8 -3 -12 -1 -5 -4 -13 -8 -19 -4 -6 -1 -11 5
-11 7 0 13 11 13 24 0 21 -4 31 -7 18z"/>
<path d="M7353 6905 c0 -8 4 -12 9 -9 5 3 6 10 3 15 -9 13 -12 11 -12 -6z"/>
<path d="M7794 6906 c1 -8 5 -18 8 -22 4 -3 5 1 4 10 -1 8 -5 18 -8 22 -4 3
-5 -1 -4 -10z"/>
<path d="M4210 6900 c0 -5 5 -10 11 -10 5 0 7 5 4 10 -3 6 -8 10 -11 10 -2 0
-4 -4 -4 -10z"/>
<path d="M6430 6896 c7 -7 13 -7 20 0 6 6 3 10 -10 10 -13 0 -16 -4 -10 -10z"/>
<path d="M7363 6878 c-11 -19 -13 -39 -1 -32 5 3 7 9 4 12 -3 3 -1 11 5 19 6
7 9 13 6 13 -3 0 -9 -6 -14 -12z"/>
<path d="M7833 6873 c0 -9 4 -10 14 -2 7 6 13 12 13 14 0 1 -6 2 -13 2 -8 0
-14 -6 -14 -14z"/>
<path d="M6913 6865 c0 -8 4 -12 9 -9 5 3 6 10 3 15 -9 13 -12 11 -12 -6z"/>
<path d="M3766 6862 c-3 -5 1 -9 9 -9 8 0 12 4 9 9 -3 4 -7 8 -9 8 -2 0 -6 -4
-9 -8z"/>
<path d="M3380 6840 c-9 -6 -10 -10 -3 -10 6 0 15 5 18 10 8 12 4 12 -15 0z"/>
<path d="M6430 6846 c0 -2 7 -7 16 -10 8 -3 12 -2 9 4 -6 10 -25 14 -25 6z"/>
<path d="M6470 6841 c0 -6 4 -13 10 -16 6 -3 7 1 4 9 -7 18 -14 21 -14 7z"/>
<path d="M7746 6838 c3 -5 10 -6 15 -3 13 9 11 12 -6 12 -8 0 -12 -4 -9 -9z"/>
<path d="M3816 6818 c3 -5 10 -6 15 -3 13 9 11 12 -6 12 -8 0 -12 -4 -9 -9z"/>
<path d="M6387 6799 c7 -7 15 -10 18 -7 3 3 -2 9 -12 12 -14 6 -15 5 -6 -5z"/>
<path d="M7299 6793 c-13 -16 -12 -17 4 -4 9 7 17 15 17 17 0 8 -8 3 -21 -13z"/>
<path d="M7330 6801 c0 -6 4 -13 10 -16 6 -3 7 1 4 9 -7 18 -14 21 -14 7z"/>
<path d="M7793 6795 c0 -8 4 -12 9 -9 5 3 6 10 3 15 -9 13 -12 11 -12 -6z"/>
<path d="M6355 6780 c3 -5 8 -10 11 -10 2 0 4 5 4 10 0 6 -5 10 -11 10 -5 0
-7 -4 -4 -10z"/>
<path d="M6430 6779 c0 -5 5 -7 10 -4 6 3 10 8 10 11 0 2 -4 4 -10 4 -5 0 -10
-5 -10 -11z"/>
<path d="M6820 6786 c0 -2 8 -10 18 -17 15 -13 16 -12 3 4 -13 16 -21 21 -21
13z"/>
<path d="M4290 6759 c0 -5 5 -7 10 -4 6 3 10 8 10 11 0 2 -4 4 -10 4 -5 0 -10
-5 -10 -11z"/>
<path d="M4396 6753 c-6 -14 -5 -15 5 -6 7 7 10 15 7 18 -3 3 -9 -2 -12 -12z"/>
<path d="M7310 6761 c0 -6 4 -13 10 -16 6 -3 7 1 4 9 -7 18 -14 21 -14 7z"/>
<path d="M7711 6747 c-8 -10 -7 -14 2 -14 8 0 14 6 14 14 0 7 -1 13 -2 13 -2
0 -8 -6 -14 -13z"/>
<path d="M6334 6738 c-4 -7 -4 -10 1 -6 4 4 15 2 24 -5 14 -11 14 -10 2 6 -16
20 -18 21 -27 5z"/>
<path d="M6459 6748 c-5 -18 -6 -38 -1 -34 7 8 12 36 6 36 -2 0 -4 -1 -5 -2z"/>
<path d="M6860 6746 c0 -2 8 -10 18 -17 15 -13 16 -12 3 4 -13 16 -21 21 -21
13z"/>
<path d="M7795 6740 c-3 -5 -1 -10 4 -10 6 0 11 5 11 10 0 6 -2 10 -4 10 -3 0
-8 -4 -11 -10z"/>
<path d="M6834 6729 c-3 -6 -2 -15 3 -20 5 -5 9 -1 9 11 0 23 -2 24 -12 9z"/>
<path d="M7736 6722 c-3 -5 1 -9 9 -9 8 0 12 4 9 9 -3 4 -7 8 -9 8 -2 0 -6 -4
-9 -8z"/>
<path d="M3375 6700 c3 -5 8 -10 11 -10 2 0 4 5 4 10 0 6 -5 10 -11 10 -5 0
-7 -4 -4 -10z"/>
<path d="M3826 6702 c-3 -5 1 -9 9 -9 8 0 15 4 15 9 0 4 -4 8 -9 8 -6 0 -12
-4 -15 -8z"/>
<path d="M4745 6700 c-3 -6 1 -7 9 -4 18 7 21 14 7 14 -6 0 -13 -4 -16 -10z"/>
<path d="M6786 6698 c3 -4 9 -8 15 -8 5 0 9 4 9 8 0 5 -7 9 -15 9 -8 0 -12 -4
-9 -9z"/>
<path d="M7236 6702 c-2 -4 -1 -14 4 -22 7 -11 9 -9 7 8 -1 24 -3 26 -11 14z"/>
<path d="M3435 6689 c-4 -6 -5 -12 -2 -15 2 -3 7 2 10 11 7 17 1 20 -8 4z"/>
<path d="M6317 6671 c-10 -12 -9 -13 3 -6 8 5 21 10 28 11 24 4 25 13 3 11
-12 -1 -28 -8 -34 -16z"/>
<path d="M6835 6680 c3 -5 8 -10 11 -10 2 0 4 5 4 10 0 6 -5 10 -11 10 -5 0
-7 -4 -4 -10z"/>
<path d="M3850 6659 c0 -5 5 -7 10 -4 6 3 10 8 10 11 0 2 -4 4 -10 4 -5 0 -10
-5 -10 -11z"/>
<path d="M4773 6655 c0 -8 4 -12 9 -9 5 3 6 10 3 15 -9 13 -12 11 -12 -6z"/>
<path d="M7315 6660 c3 -5 8 -10 11 -10 2 0 4 5 4 10 0 6 -5 10 -11 10 -5 0
-7 -4 -4 -10z"/>
<path d="M7773 6655 c0 -8 4 -12 9 -9 5 3 6 10 3 15 -9 13 -12 11 -12 -6z"/>
<path d="M6329 6643 c-13 -16 -12 -17 4 -4 9 7 17 15 17 17 0 8 -8 3 -21 -13z"/>
<path d="M6394 6640 c0 -13 4 -16 10 -10 7 7 7 13 0 20 -6 6 -10 3 -10 -10z"/>
<path d="M7219 6658 c-5 -18 -6 -38 -1 -34 7 8 12 36 6 36 -2 0 -4 -1 -5 -2z"/>
<path d="M7730 6656 c0 -2 8 -10 18 -17 15 -13 16 -12 3 4 -13 16 -21 21 -21
13z"/>
<path d="M3426 6638 c3 -5 10 -6 15 -3 13 9 11 12 -6 12 -8 0 -12 -4 -9 -9z"/>
<path d="M4330 6620 c0 -5 5 -10 11 -10 5 0 7 5 4 10 -3 6 -8 10 -11 10 -2 0
-4 -4 -4 -10z"/>
<path d="M7290 6620 c0 -5 5 -10 11 -10 5 0 7 5 4 10 -3 6 -8 10 -11 10 -2 0
-4 -4 -4 -10z"/>
<path d="M7656 6621 c-3 -5 2 -15 12 -22 15 -12 16 -12 5 2 -7 9 -10 19 -6 22
3 4 4 7 0 7 -3 0 -8 -4 -11 -9z"/>
<path d="M6319 6615 c-1 -3 -2 -8 -3 -12 -1 -5 -5 -15 -10 -23 -7 -12 -6 -13
4 -3 13 12 23 43 14 43 -2 0 -5 -2 -5 -5z"/>
<path d="M7235 6611 c-3 -5 -2 -12 3 -15 5 -3 9 1 9 9 0 17 -3 19 -12 6z"/>
<path d="M3430 6601 c0 -6 4 -12 8 -15 5 -3 9 1 9 9 0 8 -4 15 -9 15 -4 0 -8
-4 -8 -9z"/>
<path d="M6360 6600 c-9 -6 -10 -10 -3 -10 6 0 15 5 18 10 8 12 4 12 -15 0z"/>
<path d="M6735 6601 c-3 -5 -2 -12 3 -15 5 -3 9 1 9 9 0 17 -3 19 -12 6z"/>
<path d="M7260 6606 c0 -2 8 -10 18 -17 15 -13 16 -12 3 4 -13 16 -21 21 -21
13z"/>
<path d="M7740 6606 c0 -2 8 -10 18 -17 15 -13 16 -12 3 4 -13 16 -21 21 -21
13z"/>
<path d="M4793 6575 c0 -8 4 -12 9 -9 5 3 6 10 3 15 -9 13 -12 11 -12 -6z"/>
<path d="M3956 6567 c3 -10 9 -15 12 -12 3 3 0 11 -7 18 -10 9 -11 8 -5 -6z"/>
<path d="M6782 6564 c10 -10 20 -16 22 -13 3 3 -5 11 -17 18 -21 13 -21 12 -5
-5z"/>
<path d="M7214 6560 c0 -13 4 -16 10 -10 7 7 7 13 0 20 -6 6 -10 3 -10 -10z"/>
<path d="M6715 6551 c-3 -5 -2 -12 3 -15 5 -3 9 1 9 9 0 17 -3 19 -12 6z"/>
<path d="M6751 6547 c-8 -10 -7 -14 2 -14 8 0 14 6 14 14 0 7 -1 13 -2 13 -2
0 -8 -6 -14 -13z"/>
<path d="M6279 6533 c-13 -16 -12 -17 4 -4 9 7 17 15 17 17 0 8 -8 3 -21 -13z"/>
<path d="M6310 6546 c0 -2 7 -7 16 -10 8 -3 12 -2 9 4 -6 10 -25 14 -25 6z"/>
<path d="M3490 6521 c0 -6 4 -13 10 -16 6 -3 7 1 4 9 -7 18 -14 21 -14 7z"/>
<path d="M7160 6525 c0 -2 6 -8 13 -14 10 -8 14 -7 14 2 0 8 -6 14 -14 14 -7
0 -13 -1 -13 -2z"/>
<path d="M7676 6518 c3 -5 10 -6 15 -3 13 9 11 12 -6 12 -8 0 -12 -4 -9 -9z"/>
<path d="M6734 6489 c-3 -6 -2 -15 3 -20 5 -5 9 -1 9 11 0 23 -2 24 -12 9z"/>
<path d="M7619 6498 c-5 -18 -6 -38 -1 -34 7 8 12 36 6 36 -2 0 -4 -1 -5 -2z"/>
<path d="M7656 6487 c3 -10 9 -15 12 -12 3 3 0 11 -7 18 -10 9 -11 8 -5 -6z"/>
<path d="M6334 6476 c1 -8 5 -18 8 -22 4 -3 5 1 4 10 -1 8 -5 18 -8 22 -4 3
-5 -1 -4 -10z"/>
<path d="M7156 6478 c3 -5 10 -6 15 -3 13 9 11 12 -6 12 -8 0 -12 -4 -9 -9z"/>
<path d="M4413 6465 c0 -8 4 -12 9 -9 5 3 6 10 3 15 -9 13 -12 11 -12 -6z"/>
<path d="M7690 6460 c0 -5 5 -10 11 -10 5 0 7 5 4 10 -3 6 -8 10 -11 10 -2 0
-4 -4 -4 -10z"/>
<path d="M7133 6447 c0 -7 9 -14 20 -14 11 -1 18 -1 16 0 -2 2 -11 8 -20 15
-12 9 -16 9 -16 -1z"/>
<path d="M6279 6433 c-13 -16 -12 -17 4 -4 9 7 17 15 17 17 0 8 -8 3 -21 -13z"/>
<path d="M6726 6442 c-3 -5 1 -9 9 -9 8 0 12 4 9 9 -3 4 -7 8 -9 8 -2 0 -6 -4
-9 -8z"/>
<path d="M7635 6440 c3 -5 8 -10 11 -10 2 0 4 5 4 10 0 6 -5 10 -11 10 -5 0
-7 -4 -4 -10z"/>
<path d="M6230 6426 c0 -2 7 -7 16 -10 8 -3 12 -2 9 4 -6 10 -25 14 -25 6z"/>
<path d="M6223 6404 c9 -11 14 -23 11 -26 -3 -3 -1 -8 4 -12 18 -11 8 25 -12
41 -21 18 -21 18 -3 -3z"/>
<path d="M7130 6416 c0 -2 8 -10 18 -17 15 -13 16 -12 3 4 -13 16 -21 21 -21
13z"/>
<path d="M6790 6400 c0 -5 5 -10 11 -10 5 0 7 5 4 10 -3 6 -8 10 -11 10 -2 0
-4 -4 -4 -10z"/>
<path d="M7173 6395 c0 -8 4 -12 9 -9 4 3 8 9 8 15 0 5 -4 9 -8 9 -5 0 -9 -7
-9 -15z"/>
<path d="M7636 6393 c-6 -14 -5 -15 5 -6 7 7 10 15 7 18 -3 3 -9 -2 -12 -12z"/>
<path d="M4890 6379 c0 -5 5 -7 10 -4 6 3 10 8 10 11 0 2 -4 4 -10 4 -5 0 -10
-5 -10 -11z"/>
<path d="M6670 6386 c0 -2 7 -7 16 -10 8 -3 12 -2 9 4 -6 10 -25 14 -25 6z"/>
<path d="M7115 6380 c-3 -5 -1 -10 4 -10 6 0 11 5 11 10 0 6 -2 10 -4 10 -3 0
-8 -4 -11 -10z"/>
<path d="M7580 6386 c0 -2 8 -10 18 -17 15 -13 16 -12 3 4 -13 16 -21 21 -21
13z"/>
<path d="M6194 6362 c4 -3 14 -7 22 -8 9 -1 13 0 10 4 -4 3 -14 7 -22 8 -9 1
-13 0 -10 -4z"/>
<path d="M7225 6360 c-3 -6 1 -7 9 -4 18 7 21 14 7 14 -6 0 -13 -4 -16 -10z"/>
<path d="M7553 6352 c-8 -14 -8 -19 1 -19 7 0 13 9 13 19 1 10 1 18 0 18 -1 0
-7 -8 -14 -18z"/>
<path d="M3530 6339 c0 -5 5 -7 10 -4 6 3 10 8 10 11 0 2 -4 4 -10 4 -5 0 -10
-5 -10 -11z"/>
<path d="M3990 6305 c0 -7 30 -13 34 -7 3 4 -4 9 -15 9 -10 1 -19 0 -19 -2z"/>
<path d="M7110 6295 c5 -7 6 -16 2 -21 -4 -5 -3 -5 2 -1 15 12 15 34 0 34 -9
0 -11 -4 -4 -12z"/>
<path d="M7170 6300 c0 -5 5 -10 11 -10 5 0 7 5 4 10 -3 6 -8 10 -11 10 -2 0
-4 -4 -4 -10z"/>
<path d="M7553 6290 c-1 -11 2 -20 7 -20 4 0 7 7 6 15 -3 23 -12 26 -13 5z"/>
<path d="M7586 6298 c3 -5 10 -6 15 -3 13 9 11 12 -6 12 -8 0 -12 -4 -9 -9z"/>
<path d="M7074 6259 c-2 -33 4 -33 11 -1 2 12 1 24 -3 26 -4 2 -8 -9 -8 -25z"/>
<path d="M7630 6280 c0 -5 5 -10 11 -10 5 0 7 5 4 10 -3 6 -8 10 -11 10 -2 0
-4 -4 -4 -10z"/>
<path d="M7595 6269 c-4 -6 -5 -12 -2 -15 2 -3 7 2 10 11 7 17 1 20 -8 4z"/>
<path d="M4930 6259 c0 -5 5 -7 10 -4 6 3 10 8 10 11 0 2 -4 4 -10 4 -5 0 -10
-5 -10 -11z"/>
<path d="M7550 6256 c0 -2 8 -10 18 -17 15 -13 16 -12 3 4 -13 16 -21 21 -21
13z"/>
<path d="M4490 6239 c0 -5 5 -7 10 -4 6 3 10 8 10 11 0 2 -4 4 -10 4 -5 0 -10
-5 -10 -11z"/>
<path d="M6696 6218 c3 -4 11 -5 19 -1 21 7 19 12 -4 10 -11 0 -18 -5 -15 -9z"/>
<path d="M4055 6211 c-3 -5 -2 -12 3 -15 5 -3 9 1 9 9 0 17 -3 19 -12 6z"/>
<path d="M6193 6205 c0 -8 4 -12 9 -9 5 3 6 10 3 15 -9 13 -12 11 -12 -6z"/>
<path d="M6250 6206 c0 -2 7 -7 16 -10 8 -3 12 -2 9 4 -6 10 -25 14 -25 6z"/>
<path d="M7076 6198 c3 -5 10 -6 15 -3 13 9 11 12 -6 12 -8 0 -12 -4 -9 -9z"/>
<path d="M7115 6201 c-3 -5 -2 -12 3 -15 5 -3 9 1 9 9 0 17 -3 19 -12 6z"/>
<path d="M6593 6187 c0 -8 6 -14 14 -14 9 0 10 4 2 14 -6 7 -12 13 -14 13 -1
0 -2 -6 -2 -13z"/>
<path d="M3607 6179 c7 -7 15 -10 18 -7 3 3 -2 9 -12 12 -14 6 -15 5 -6 -5z"/>
<path d="M7071 6173 c7 -12 15 -20 18 -17 3 2 -3 12 -13 22 -17 16 -18 16 -5
-5z"/>
<path d="M7480 6175 c-7 -9 -11 -17 -9 -20 3 -2 10 5 17 15 14 24 10 26 -8 5z"/>
<path d="M7516 6181 c-3 -5 2 -15 12 -22 15 -12 16 -12 5 2 -7 9 -10 19 -6 22
3 4 4 7 0 7 -3 0 -8 -4 -11 -9z"/>
<path d="M7570 6179 c0 -5 5 -7 10 -4 6 3 10 8 10 11 0 2 -4 4 -10 4 -5 0 -10
-5 -10 -11z"/>
<path d="M6235 6169 c-4 -6 -5 -12 -2 -15 2 -3 7 2 10 11 7 17 1 20 -8 4z"/>
<path d="M4550 6156 c7 -7 13 -7 20 0 6 6 3 10 -10 10 -13 0 -16 -4 -10 -10z"/>
<path d="M6153 6153 c0 -9 4 -10 14 -2 7 6 13 12 13 14 0 1 -6 2 -13 2 -8 0
-14 -6 -14 -14z"/>
<path d="M7027 6159 c7 -7 15 -10 18 -7 3 3 -2 9 -12 12 -14 6 -15 5 -6 -5z"/>
<path d="M6560 6140 c-9 -6 -10 -10 -3 -10 6 0 15 5 18 10 8 12 4 12 -15 0z"/>
<path d="M6650 6140 c0 -5 5 -10 11 -10 5 0 7 5 4 10 -3 6 -8 10 -11 10 -2 0
-4 -4 -4 -10z"/>
<path d="M7489 6123 c-13 -16 -12 -17 4 -4 16 13 21 21 13 21 -2 0 -10 -8 -17
-17z"/>
<path d="M3610 6120 c0 -5 5 -10 11 -10 5 0 7 5 4 10 -3 6 -8 10 -11 10 -2 0
-4 -4 -4 -10z"/>
<path d="M6146 6121 c-3 -4 4 -7 14 -6 27 2 33 10 10 12 -11 1 -22 -2 -24 -6z"/>
<path d="M6549 6103 c-13 -16 -12 -17 4 -4 9 7 17 15 17 17 0 8 -8 3 -21 -13z"/>
<path d="M6086 6085 c-11 -8 -15 -15 -9 -15 6 0 16 7 23 15 16 19 11 19 -14 0z"/>
<path d="M6126 6038 c3 -5 10 -6 15 -3 13 9 11 12 -6 12 -8 0 -12 -4 -9 -9z"/>
<path d="M6560 6040 c-9 -6 -10 -10 -3 -10 6 0 15 5 18 10 8 12 4 12 -15 0z"/>
<path d="M6590 6039 c0 -5 5 -7 10 -4 6 3 10 8 10 11 0 2 -4 4 -10 4 -5 0 -10
-5 -10 -11z"/>
<path d="M6979 6033 c-13 -16 -12 -17 4 -4 9 7 17 15 17 17 0 8 -8 3 -21 -13z"/>
<path d="M7085 6040 c-3 -6 1 -7 9 -4 18 7 21 14 7 14 -6 0 -13 -4 -16 -10z"/>
<path d="M4120 6020 c-12 -7 -10 -9 7 -7 12 0 19 5 17 9 -6 10 -6 10 -24 -2z"/>
<path d="M7035 6019 c-3 -4 2 -6 10 -5 21 3 28 13 10 13 -9 0 -18 -4 -20 -8z"/>
<path d="M7439 6013 c-13 -16 -12 -17 4 -4 9 7 17 15 17 17 0 8 -8 3 -21 -13z"/>
<path d="M7475 6001 c-3 -5 -2 -12 3 -15 5 -3 9 1 9 9 0 17 -3 19 -12 6z"/>
<path d="M7506 5998 c3 -5 10 -6 15 -3 13 9 11 12 -6 12 -8 0 -12 -4 -9 -9z"/>
<path d="M6513 5985 c0 -8 4 -12 9 -9 5 3 6 10 3 15 -9 13 -12 11 -12 -6z"/>
<path d="M7055 5989 c-4 -6 -5 -12 -2 -15 2 -3 7 2 10 11 7 17 1 20 -8 4z"/>
<path d="M4566 5978 c3 -5 10 -6 15 -3 13 9 11 12 -6 12 -8 0 -12 -4 -9 -9z"/>
<path d="M6066 5978 c3 -5 10 -6 15 -3 13 9 11 12 -6 12 -8 0 -12 -4 -9 -9z"/>
<path d="M6105 5980 c-3 -6 1 -7 9 -4 18 7 21 14 7 14 -6 0 -13 -4 -16 -10z"/>
<path d="M6595 5981 c-3 -5 -2 -12 3 -15 5 -3 9 1 9 9 0 17 -3 19 -12 6z"/>
<path d="M4630 5966 c0 -2 7 -7 16 -10 8 -3 12 -2 9 4 -6 10 -25 14 -25 6z"/>
<path d="M6946 5962 c-2 -4 4 -8 14 -8 10 0 16 4 14 8 -3 4 -9 8 -14 8 -5 0
-11 -4 -14 -8z"/>
<path d="M7420 5965 c0 -2 6 -8 13 -14 10 -8 14 -7 14 2 0 8 -6 14 -14 14 -7
0 -13 -1 -13 -2z"/>
<path d="M6115 5940 c-3 -5 -1 -10 4 -10 6 0 11 5 11 10 0 6 -2 10 -4 10 -3 0
-8 -4 -11 -10z"/>
<path d="M6975 5929 c-4 -6 -5 -12 -2 -15 2 -3 7 2 10 11 7 17 1 20 -8 4z"/>
<path d="M6016 5913 c-6 -14 -5 -15 5 -6 7 7 10 15 7 18 -3 3 -9 -2 -12 -12z"/>
<path d="M6465 5899 c-3 -4 2 -6 10 -5 21 3 28 13 10 13 -9 0 -18 -4 -20 -8z"/>
<path d="M6510 5897 c0 -2 6 -10 14 -16 11 -9 16 -9 22 1 4 7 4 10 -1 6 -4 -4
-14 -3 -22 3 -7 6 -13 9 -13 6z"/>
<path d="M7373 5887 c0 -7 9 -14 20 -14 11 -1 18 -1 16 0 -2 2 -11 8 -20 15
-12 9 -16 9 -16 -1z"/>
<path d="M6035 5880 c3 -5 8 -10 11 -10 2 0 4 5 4 10 0 6 -5 10 -11 10 -5 0
-7 -4 -4 -10z"/>
<path d="M6093 5871 c0 -11 5 -18 9 -15 4 3 5 11 1 19 -7 21 -12 19 -10 -4z"/>
<path d="M6920 5885 c0 -2 6 -8 13 -14 10 -8 14 -7 14 2 0 8 -6 14 -14 14 -7
0 -13 -1 -13 -2z"/>
<path d="M6996 5873 c-6 -14 -5 -15 5 -6 7 7 10 15 7 18 -3 3 -9 -2 -12 -12z"/>
<path d="M7467 5879 c7 -7 15 -10 18 -7 3 3 -2 9 -12 12 -14 6 -15 5 -6 -5z"/>
<path d="M6013 5845 c0 -8 4 -12 9 -9 5 3 6 10 3 15 -9 13 -12 11 -12 -6z"/>
<path d="M7374 5840 c0 -13 4 -16 10 -10 7 7 7 13 0 20 -6 6 -10 3 -10 -10z"/>
<path d="M6056 5833 c-6 -14 -5 -15 5 -6 7 7 10 15 7 18 -3 3 -9 -2 -12 -12z"/>
<path d="M6956 5833 c-6 -14 -5 -15 5 -6 7 7 10 15 7 18 -3 3 -9 -2 -12 -12z"/>
<path d="M7410 5839 c0 -5 5 -7 10 -4 6 3 10 8 10 11 0 2 -4 4 -10 4 -5 0 -10
-5 -10 -11z"/>
<path d="M6430 5826 c0 -2 7 -7 16 -10 8 -3 12 -2 9 4 -6 10 -25 14 -25 6z"/>
<path d="M6906 5822 c-2 -4 4 -8 14 -8 10 0 16 4 14 8 -3 4 -9 8 -14 8 -5 0
-11 -4 -14 -8z"/>
<path d="M6011 5807 c-8 -10 -7 -14 2 -14 8 0 14 6 14 14 0 7 -1 13 -2 13 -2
0 -8 -6 -14 -13z"/>
<path d="M4187 5799 c7 -7 15 -10 18 -7 3 3 -2 9 -12 12 -14 6 -15 5 -6 -5z"/>
<path d="M6090 5806 c0 -2 7 -7 16 -10 8 -3 12 -2 9 4 -6 10 -25 14 -25 6z"/>
<path d="M7335 5801 c-3 -5 -2 -12 3 -15 5 -3 9 1 9 9 0 17 -3 19 -12 6z"/>
<path d="M7390 5806 c0 -2 7 -7 16 -10 8 -3 12 -2 9 4 -6 10 -25 14 -25 6z"/>
<path d="M5119 5773 c-12 -16 -12 -17 2 -6 9 7 20 9 24 5 5 -4 5 -1 1 6 -9 16
-11 15 -27 -5z"/>
<path d="M5969 5763 c-13 -16 -12 -17 4 -4 9 7 17 15 17 17 0 8 -8 3 -21 -13z"/>
<path d="M6870 5766 c0 -2 7 -7 16 -10 8 -3 12 -2 9 4 -6 10 -25 14 -25 6z"/>
<path d="M6960 5760 c-9 -6 -10 -10 -3 -10 6 0 15 5 18 10 8 12 4 12 -15 0z"/>
<path d="M7413 5749 c-2 -23 3 -25 10 -4 4 8 3 16 -1 19 -4 3 -9 -4 -9 -15z"/>
<path d="M4235 5741 c-3 -5 -2 -12 3 -15 5 -3 9 1 9 9 0 17 -3 19 -12 6z"/>
<path d="M4696 5742 c-3 -4 4 -9 15 -9 23 -2 25 3 4 10 -8 4 -16 3 -19 -1z"/>
<path d="M6426 5742 c-2 -4 4 -8 14 -8 10 0 16 4 14 8 -3 4 -9 8 -14 8 -5 0
-11 -4 -14 -8z"/>
<path d="M7319 5733 c-13 -16 -12 -17 4 -4 9 7 17 15 17 17 0 8 -8 3 -21 -13z"/>
<path d="M3800 5726 c0 -2 8 -10 18 -17 15 -13 16 -12 3 4 -13 16 -21 21 -21
13z"/>
<path d="M6070 5726 c0 -2 7 -7 16 -10 8 -3 12 -2 9 4 -6 10 -25 14 -25 6z"/>
<path d="M6840 5726 c0 -2 8 -10 18 -17 15 -13 16 -12 3 4 -13 16 -21 21 -21
13z"/>
<path d="M7356 5718 c3 -5 10 -6 15 -3 13 9 11 12 -6 12 -8 0 -12 -4 -9 -9z"/>
<path d="M5960 5695 c-7 -9 -11 -17 -9 -20 3 -2 10 5 17 15 14 24 10 26 -8 5z"/>
<path d="M6430 5698 c0 -4 4 -8 9 -8 6 0 12 4 15 8 3 5 -1 9 -9 9 -8 0 -15 -4
-15 -9z"/>
<path d="M6910 5699 c0 -5 5 -7 10 -4 6 3 10 8 10 11 0 2 -4 4 -10 4 -5 0 -10
-5 -10 -11z"/>
<path d="M6396 5682 c-3 -5 1 -9 9 -9 8 0 12 4 9 9 -3 4 -7 8 -9 8 -2 0 -6 -4
-9 -8z"/>
<path d="M6864 5682 c4 -3 14 -7 22 -8 9 -1 13 0 10 4 -4 3 -14 7 -22 8 -9 1
-13 0 -10 -4z"/>
<path d="M6006 5662 c-3 -5 1 -9 9 -9 8 0 12 4 9 9 -3 4 -7 8 -9 8 -2 0 -6 -4
-9 -8z"/>
<path d="M6826 5662 c-3 -5 1 -9 9 -9 8 0 15 4 15 9 0 4 -4 8 -9 8 -6 0 -12
-4 -15 -8z"/>
<path d="M4713 5625 c0 -8 4 -12 9 -9 5 3 6 10 3 15 -9 13 -12 11 -12 -6z"/>
<path d="M6393 5625 c0 -8 4 -12 9 -9 5 3 6 10 3 15 -9 13 -12 11 -12 -6z"/>
<path d="M7277 5612 c-15 -16 -15 -19 -2 -19 8 0 13 3 10 5 -3 3 0 11 6 19 17
20 5 16 -14 -5z"/>
<path d="M4275 5609 c-4 -6 -5 -12 -2 -15 2 -3 7 2 10 11 7 17 1 20 -8 4z"/>
<path d="M5895 5611 c-3 -5 -2 -12 3 -15 5 -3 9 1 9 9 0 17 -3 19 -12 6z"/>
<path d="M6416 5598 c3 -5 10 -6 15 -3 13 9 11 12 -6 12 -8 0 -12 -4 -9 -9z"/>
<path d="M7326 5598 c3 -5 10 -6 15 -3 13 9 11 12 -6 12 -8 0 -12 -4 -9 -9z"/>
<path d="M6825 5580 c-3 -6 1 -7 9 -4 18 7 21 14 7 14 -6 0 -13 -4 -16 -10z"/>
<path d="M7286 5558 c3 -5 10 -6 15 -3 13 9 11 12 -6 12 -8 0 -12 -4 -9 -9z"/>
<path d="M5913 5545 c0 -8 4 -12 9 -9 5 3 6 10 3 15 -9 13 -12 11 -12 -6z"/>
<path d="M4286 5542 c-3 -5 1 -9 9 -9 8 0 12 4 9 9 -3 4 -7 8 -9 8 -2 0 -6 -4
-9 -8z"/>
<path d="M6776 5527 c3 -10 9 -15 12 -12 3 3 0 11 -7 18 -10 9 -11 8 -5 -6z"/>
<path d="M3896 5502 c-3 -5 1 -9 9 -9 8 0 12 4 9 9 -3 4 -7 8 -9 8 -2 0 -6 -4
-9 -8z"/>
<path d="M4775 5501 c-3 -5 -2 -12 3 -15 5 -3 9 1 9 9 0 17 -3 19 -12 6z"/>
<path d="M6345 5500 c-3 -6 1 -7 9 -4 18 7 21 14 7 14 -6 0 -13 -4 -16 -10z"/>
<path d="M6416 5502 c-3 -4 4 -9 15 -9 23 -2 25 3 4 10 -8 4 -16 3 -19 -1z"/>
<path d="M6769 5483 c-13 -16 -12 -17 4 -4 9 7 17 15 17 17 0 8 -8 3 -21 -13z"/>
<path d="M7256 5487 c3 -10 9 -15 12 -12 3 3 0 11 -7 18 -10 9 -11 8 -5 -6z"/>
<path d="M7315 5489 c-4 -6 -5 -12 -2 -15 2 -3 7 2 10 11 7 17 1 20 -8 4z"/>
<path d="M6796 5482 c-3 -5 1 -9 9 -9 8 0 12 4 9 9 -3 4 -7 8 -9 8 -2 0 -6 -4
-9 -8z"/>
<path d="M7229 5463 c-13 -16 -12 -17 4 -4 9 7 17 15 17 17 0 8 -8 3 -21 -13z"/>
<path d="M6305 5459 c-3 -4 2 -6 10 -5 21 3 28 13 10 13 -9 0 -18 -4 -20 -8z"/>
<path d="M6855 5461 c-3 -5 -2 -12 3 -15 5 -3 9 1 9 9 0 17 -3 19 -12 6z"/>
<path d="M5876 5451 c-5 -8 0 -50 7 -58 3 -2 4 12 3 32 -1 37 -2 40 -10 26z"/>
<path d="M7246 5438 c3 -5 10 -6 15 -3 13 9 11 12 -6 12 -8 0 -12 -4 -9 -9z"/>
<path d="M6759 5438 c-4 -10 -5 -67 -1 -63 6 6 11 65 5 65 -2 0 -4 -1 -4 -2z"/>
<path d="M5826 5418 c3 -4 9 -8 15 -8 5 0 9 4 9 8 0 5 -7 9 -15 9 -8 0 -12 -4
-9 -9z"/>
<path d="M6276 5422 c-2 -4 -1 -14 4 -22 7 -11 9 -9 7 8 -1 24 -3 26 -11 14z"/>
<path d="M6310 5378 c0 -4 4 -8 9 -8 6 0 12 4 15 8 3 5 -1 9 -9 9 -8 0 -15 -4
-15 -9z"/>
<path d="M7215 5369 c-4 -6 -5 -12 -2 -15 2 -3 7 2 10 11 7 17 1 20 -8 4z"/>
<path d="M6275 5360 c-3 -5 -1 -10 4 -10 6 0 11 5 11 10 0 6 -2 10 -4 10 -3 0
-8 -4 -11 -10z"/>
<path d="M5790 5335 c5 -7 7 -15 3 -18 -3 -4 -1 -7 5 -7 6 0 10 8 9 18 0 10
-7 19 -14 19 -9 0 -10 -4 -3 -12z"/>
<path d="M6310 5339 c0 -5 5 -7 10 -4 6 3 10 8 10 11 0 2 -4 4 -10 4 -5 0 -10
-5 -10 -11z"/>
<path d="M7150 5320 c0 -4 7 -7 15 -6 23 3 26 12 5 13 -11 1 -20 -2 -20 -7z"/>
<path d="M5850 5299 c0 -5 5 -7 10 -4 6 3 10 8 10 11 0 2 -4 4 -10 4 -5 0 -10
-5 -10 -11z"/>
<path d="M6335 5301 c-3 -5 -2 -12 3 -15 5 -3 9 1 9 9 0 17 -3 19 -12 6z"/>
<path d="M6753 5295 c0 -8 4 -12 9 -9 5 3 6 10 3 15 -9 13 -12 11 -12 -6z"/>
<path d="M4905 5280 c-3 -6 1 -7 9 -4 18 7 21 14 7 14 -6 0 -13 -4 -16 -10z"/>
<path d="M6273 5275 c0 -8 4 -12 9 -9 5 3 6 10 3 15 -9 13 -12 11 -12 -6z"/>
<path d="M6835 5280 c3 -5 8 -10 11 -10 2 0 4 5 4 10 0 6 -5 10 -11 10 -5 0
-7 -4 -4 -10z"/>
<path d="M6675 5260 c6 -30 16 -40 12 -12 -2 12 -6 24 -10 28 -3 4 -4 -4 -2
-16z"/>
<path d="M4475 5260 c3 -5 8 -10 11 -10 2 0 4 5 4 10 0 6 -5 10 -11 10 -5 0
-7 -4 -4 -10z"/>
<path d="M6710 5259 c0 -5 5 -7 10 -4 6 3 10 8 10 11 0 2 -4 4 -10 4 -5 0 -10
-5 -10 -11z"/>
<path d="M7146 5262 c-3 -5 1 -9 9 -9 8 0 15 4 15 9 0 4 -4 8 -9 8 -6 0 -12
-4 -15 -8z"/>
<path d="M5300 5245 c0 -2 6 -8 13 -14 10 -8 14 -7 14 2 0 8 -6 14 -14 14 -7
0 -13 -1 -13 -2z"/>
<path d="M6275 5240 c-3 -5 -1 -10 4 -10 6 0 11 5 11 10 0 6 -2 10 -4 10 -3 0
-8 -4 -11 -10z"/>
<path d="M7240 5240 c-9 -6 -10 -10 -3 -10 6 0 15 5 18 10 8 12 4 12 -15 0z"/>
<path d="M4886 5218 c3 -5 10 -6 15 -3 13 9 11 12 -6 12 -8 0 -12 -4 -9 -9z"/>
<path d="M5787 5219 c7 -7 15 -10 18 -7 3 3 -2 9 -12 12 -14 6 -15 5 -6 -5z"/>
<path d="M6236 5215 c-9 -26 -7 -32 5 -12 6 10 9 21 6 23 -2 3 -7 -2 -11 -11z"/>
<path d="M3993 5205 c0 -8 4 -12 9 -9 5 3 6 10 3 15 -9 13 -12 11 -12 -6z"/>
<path d="M7135 5209 c-4 -6 -5 -12 -2 -15 2 -3 7 2 10 11 7 17 1 20 -8 4z"/>
<path d="M5746 5198 c3 -5 10 -6 15 -3 13 9 11 12 -6 12 -8 0 -12 -4 -9 -9z"/>
<path d="M6275 5200 c3 -5 8 -10 11 -10 2 0 4 5 4 10 0 6 -5 10 -11 10 -5 0
-7 -4 -4 -10z"/>
<path d="M4870 5191 c0 -6 4 -13 10 -16 6 -3 7 1 4 9 -7 18 -14 21 -14 7z"/>
<path d="M5376 5182 c-3 -5 1 -9 9 -9 8 0 12 4 9 9 -3 4 -7 8 -9 8 -2 0 -6 -4
-9 -8z"/>
<path d="M7086 5165 c-18 -14 -18 -14 1 -12 11 0 20 7 20 14 0 7 -1 13 -1 13
-1 0 -9 -7 -20 -15z"/>
<path d="M4933 5151 c0 -11 5 -18 9 -15 4 3 5 11 1 19 -7 21 -12 19 -10 -4z"/>
<path d="M5870 5159 c0 -5 5 -7 10 -4 6 3 10 8 10 11 0 2 -4 4 -10 4 -5 0 -10
-5 -10 -11z"/>
<path d="M6213 5155 c0 -8 4 -12 9 -9 4 3 8 9 8 15 0 5 -4 9 -8 9 -5 0 -9 -7
-9 -15z"/>
<path d="M7180 5166 c0 -2 8 -10 18 -17 15 -13 16 -12 3 4 -13 16 -21 21 -21
13z"/>
<path d="M6255 5151 c-3 -5 -2 -12 3 -15 5 -3 9 1 9 9 0 17 -3 19 -12 6z"/>
<path d="M6615 5141 c-3 -5 -2 -12 3 -15 5 -3 9 1 9 9 0 17 -3 19 -12 6z"/>
<path d="M6714 5136 c1 -8 5 -18 8 -22 4 -3 5 1 4 10 -1 8 -5 18 -8 22 -4 3
-5 -1 -4 -10z"/>
<path d="M5715 5131 c-3 -5 -2 -12 3 -15 5 -3 9 1 9 9 0 17 -3 19 -12 6z"/>
<path d="M4060 5126 c0 -2 8 -10 18 -17 15 -13 16 -12 3 4 -13 16 -21 21 -21
13z"/>
<path d="M4494 5116 c1 -8 5 -18 8 -22 4 -3 5 1 4 10 -1 8 -5 18 -8 22 -4 3
-5 -1 -4 -10z"/>
<path d="M6670 5119 c0 -5 5 -7 10 -4 6 3 10 8 10 11 0 2 -4 4 -10 4 -5 0 -10
-5 -10 -11z"/>
<path d="M6233 5105 c0 -8 4 -12 9 -9 5 3 6 10 3 15 -9 13 -12 11 -12 -6z"/>
<path d="M5359 5093 c-12 -16 -12 -17 2 -6 9 7 20 9 24 5 5 -4 5 -1 1 6 -9 16
-11 15 -27 -5z"/>
<path d="M6596 5093 c-6 -14 -5 -15 5 -6 7 7 10 15 7 18 -3 3 -9 -2 -12 -12z"/>
<path d="M6633 5095 c0 -8 4 -12 9 -9 5 3 6 10 3 15 -9 13 -12 11 -12 -6z"/>
<path d="M7049 5083 c-13 -16 -12 -17 4 -4 9 7 17 15 17 17 0 8 -8 3 -21 -13z"/>
<path d="M7093 5085 c0 -8 4 -15 9 -15 4 0 8 4 8 9 0 6 -4 12 -8 15 -5 3 -9
-1 -9 -9z"/>
<path d="M5300 5080 c-8 -5 -10 -10 -5 -10 6 0 17 5 25 10 8 5 11 10 5 10 -5
0 -17 -5 -25 -10z"/>
<path d="M6173 5073 c0 -6 5 -9 11 -5 6 4 14 7 18 7 19 0 14 11 -6 11 -12 0
-23 -6 -23 -13z"/>
<path d="M5715 5071 c-3 -5 -2 -12 3 -15 5 -3 9 1 9 9 0 17 -3 19 -12 6z"/>
<path d="M5670 5066 c0 -2 7 -7 16 -10 8 -3 12 -2 9 4 -6 10 -25 14 -25 6z"/>
<path d="M5766 5058 c3 -5 10 -6 15 -3 13 9 11 12 -6 12 -8 0 -12 -4 -9 -9z"/>
<path d="M6580 5066 c0 -2 8 -10 18 -17 15 -13 16 -12 3 4 -13 16 -21 21 -21
13z"/>
<path d="M7109 5043 c-13 -16 -12 -17 4 -4 9 7 17 15 17 17 0 8 -8 3 -21 -13z"/>
<path d="M6186 5038 c3 -5 10 -6 15 -3 13 9 11 12 -6 12 -8 0 -12 -4 -9 -9z"/>
<path d="M6630 5036 c7 -7 13 -7 20 0 6 6 3 10 -10 10 -13 0 -16 -4 -10 -10z"/>
<path d="M5715 5010 c10 -11 20 -20 23 -20 3 0 -3 9 -13 20 -10 11 -20 20 -23
20 -3 0 3 -9 13 -20z"/>
<path d="M7041 5016 c-9 -11 -9 -16 1 -22 7 -4 10 -4 6 1 -4 4 -3 14 3 22 6 7
9 13 6 13 -2 0 -10 -6 -16 -14z"/>
<path d="M7139 5028 c-5 -18 -6 -38 -1 -34 7 8 12 36 6 36 -2 0 -4 -1 -5 -2z"/>
<path d="M6635 5011 c-3 -5 -2 -12 3 -15 5 -3 9 1 9 9 0 17 -3 19 -12 6z"/>
<path d="M6564 5002 c4 -3 14 -7 22 -8 9 -1 13 0 10 4 -4 3 -14 7 -22 8 -9 1
-13 0 -10 -4z"/>
<path d="M5669 4983 c-13 -16 -12 -17 4 -4 9 7 17 15 17 17 0 8 -8 3 -21 -13z"/>
<path d="M6106 4978 c3 -4 9 -8 15 -8 5 0 9 4 9 8 0 5 -7 9 -15 9 -8 0 -12 -4
-9 -9z"/>
<path d="M6215 4981 c-3 -5 -2 -12 3 -15 5 -3 9 1 9 9 0 17 -3 19 -12 6z"/>
<path d="M6139 4953 c-13 -16 -12 -17 4 -4 16 13 21 21 13 21 -2 0 -10 -8 -17
-17z"/>
<path d="M6603 4958 c-10 -17 -12 -59 -2 -53 4 3 6 13 4 23 -1 9 2 23 8 30 5
6 7 12 4 12 -3 0 -9 -6 -14 -12z"/>
<path d="M5679 4958 c-5 -18 -6 -38 -1 -34 7 8 12 36 6 36 -2 0 -4 -1 -5 -2z"/>
<path d="M4993 4935 c0 -8 4 -12 9 -9 5 3 6 10 3 15 -9 13 -12 11 -12 -6z"/>
<path d="M5265 4940 c-3 -6 1 -7 9 -4 18 7 21 14 7 14 -6 0 -13 -4 -16 -10z"/>
<path d="M5305 4940 c-3 -6 1 -7 9 -4 18 7 21 14 7 14 -6 0 -13 -4 -16 -10z"/>
<path d="M6166 4938 c3 -5 10 -6 15 -3 13 9 11 12 -6 12 -8 0 -12 -4 -9 -9z"/>
<path d="M6546 4938 c3 -4 9 -8 15 -8 5 0 9 4 9 8 0 5 -7 9 -15 9 -8 0 -12 -4
-9 -9z"/>
<path d="M6086 4925 c-11 -8 -15 -15 -9 -15 6 0 16 7 23 15 16 19 11 19 -14 0z"/>
<path d="M7014 4920 c0 -13 4 -16 10 -10 7 7 7 13 0 20 -6 6 -10 3 -10 -10z"/>
<path d="M4110 4921 c0 -6 4 -13 10 -16 6 -3 7 1 4 9 -7 18 -14 21 -14 7z"/>
<path d="M6175 4911 c-3 -5 -2 -12 3 -15 5 -3 9 1 9 9 0 17 -3 19 -12 6z"/>
<path d="M6550 4916 c0 -2 8 -10 18 -17 15 -13 16 -12 3 4 -13 16 -21 21 -21
13z"/>
<path d="M4560 4900 c-12 -7 -10 -9 7 -7 12 0 19 5 17 9 -6 10 -6 10 -24 -2z"/>
<path d="M5010 4900 c0 -5 5 -10 11 -10 5 0 7 5 4 10 -3 6 -8 10 -11 10 -2 0
-4 -4 -4 -10z"/>
<path d="M5326 4898 c3 -5 10 -6 15 -3 13 9 11 12 -6 12 -8 0 -12 -4 -9 -9z"/>
<path d="M5634 4893 c21 -25 36 -30 36 -11 0 6 -3 8 -7 5 -3 -4 -16 1 -27 10
-21 18 -21 18 -2 -4z"/>
<path d="M5613 4875 c0 -8 4 -12 9 -9 5 3 6 10 3 15 -9 13 -12 11 -12 -6z"/>
<path d="M6595 4881 c-3 -5 -2 -12 3 -15 5 -3 9 1 9 9 0 17 -3 19 -12 6z"/>
<path d="M6549 4863 c-13 -16 -12 -17 4 -4 16 13 21 21 13 21 -2 0 -10 -8 -17
-17z"/>
<path d="M6065 4860 c-3 -6 1 -7 9 -4 18 7 21 14 7 14 -6 0 -13 -4 -16 -10z"/>
<path d="M5030 4839 c0 -5 5 -7 10 -4 6 3 10 8 10 11 0 2 -4 4 -10 4 -5 0 -10
-5 -10 -11z"/>
<path d="M5613 4833 c0 -9 4 -10 12 -3 7 5 15 7 18 3 4 -3 7 -1 7 5 0 6 -8 10
-18 9 -10 0 -19 -7 -19 -14z"/>
<path d="M5665 4840 c-3 -6 1 -7 9 -4 18 7 21 14 7 14 -6 0 -13 -4 -16 -10z"/>
<path d="M6509 4823 c-13 -16 -12 -17 4 -4 16 13 21 21 13 21 -2 0 -10 -8 -17
-17z"/>
<path d="M6995 4809 c-4 -6 -5 -12 -2 -15 2 -3 7 2 10 11 7 17 1 20 -8 4z"/>
<path d="M5616 4793 c-6 -14 -5 -15 5 -6 7 7 10 15 7 18 -3 3 -9 -2 -12 -12z"/>
<path d="M5646 4798 c3 -5 10 -6 15 -3 13 9 11 12 -6 12 -8 0 -12 -4 -9 -9z"/>
<path d="M6956 4773 c-6 -14 -5 -15 5 -6 7 7 10 15 7 18 -3 3 -9 -2 -12 -12z"/>
<path d="M5603 4758 c-11 -19 -14 -46 -5 -52 5 -3 8 5 7 17 -1 12 2 28 8 35 5
6 7 12 4 12 -3 0 -9 -6 -14 -12z"/>
<path d="M6019 4753 c-13 -16 -12 -17 4 -4 16 13 21 21 13 21 -2 0 -10 -8 -17
-17z"/>
<path d="M6914 4759 c-3 -6 -2 -15 3 -20 5 -5 9 -1 9 11 0 23 -2 24 -12 9z"/>
<path d="M7019 4768 c-5 -18 -6 -38 -1 -34 7 8 12 36 6 36 -2 0 -4 -1 -5 -2z"/>
<path d="M4170 4740 c0 -5 5 -10 11 -10 5 0 7 5 4 10 -3 6 -8 10 -11 10 -2 0
-4 -4 -4 -10z"/>
<path d="M6946 4742 c-2 -4 4 -8 14 -8 10 0 16 4 14 8 -3 4 -9 8 -14 8 -5 0
-11 -4 -14 -8z"/>
<path d="M4654 4714 c1 -8 4 -15 7 -16 2 -2 3 -1 2 1 -2 2 2 9 7 16 7 8 5 12
-4 12 -8 0 -13 -6 -12 -13z"/>
<path d="M6513 4715 c0 -8 4 -12 9 -9 4 3 8 9 8 15 0 5 -4 9 -8 9 -5 0 -9 -7
-9 -15z"/>
<path d="M4789 4683 c-13 -16 -12 -17 4 -4 16 13 21 21 13 21 -2 0 -10 -8 -17
-17z"/>
<path d="M6933 4675 c0 -8 4 -12 9 -9 4 3 8 9 8 15 0 5 -4 9 -8 9 -5 0 -9 -7
-9 -15z"/>
<path d="M5555 4671 c-3 -5 -2 -12 3 -15 5 -3 9 1 9 9 0 17 -3 19 -12 6z"/>
<path d="M6439 4653 c-13 -16 -12 -17 4 -4 9 7 17 15 17 17 0 8 -8 3 -21 -13z"/>
<path d="M4670 4641 c0 -6 4 -13 10 -16 6 -3 7 1 4 9 -7 18 -14 21 -14 7z"/>
<path d="M5115 4619 c-3 -4 2 -6 10 -5 21 3 28 13 10 13 -9 0 -18 -4 -20 -8z"/>
<path d="M5554 4613 c16 -20 36 -23 36 -6 0 4 -3 3 -7 0 -3 -4 -16 1 -27 10
-21 18 -21 18 -2 -4z"/>
<path d="M6050 4619 c0 -5 5 -7 10 -4 6 3 10 8 10 11 0 2 -4 4 -10 4 -5 0 -10
-5 -10 -11z"/>
<path d="M5975 4610 c-4 -6 -11 -8 -16 -5 -5 4 -9 2 -9 -4 0 -5 8 -9 18 -8 10
0 19 7 19 14 0 16 -4 16 -12 3z"/>
<path d="M6870 4616 c0 -2 8 -10 18 -17 15 -13 16 -12 3 4 -13 16 -21 21 -21
13z"/>
<path d="M6910 4601 c0 -6 4 -13 10 -16 6 -3 7 1 4 9 -7 18 -14 21 -14 7z"/>
<path d="M6033 4585 c0 -8 4 -12 9 -9 5 3 6 10 3 15 -9 13 -12 11 -12 -6z"/>
<path d="M4690 4579 c0 -5 5 -7 10 -4 6 3 10 8 10 11 0 2 -4 4 -10 4 -5 0 -10
-5 -10 -11z"/>
<path d="M5130 4579 c0 -5 5 -7 10 -4 6 3 10 8 10 11 0 2 -4 4 -10 4 -5 0 -10
-5 -10 -11z"/>
<path d="M6395 4581 c-3 -5 -2 -12 3 -15 5 -3 9 1 9 9 0 17 -3 19 -12 6z"/>
<path d="M5994 4560 c0 -13 4 -16 10 -10 7 7 7 13 0 20 -6 6 -10 3 -10 -10z"/>
<path d="M6854 4569 c-3 -6 -2 -15 3 -20 5 -5 9 -1 9 11 0 23 -2 24 -12 9z"/>
<path d="M5485 4560 c-3 -6 1 -7 9 -4 18 7 21 14 7 14 -6 0 -13 -4 -16 -10z"/>
<path d="M5109 4543 c-13 -16 -12 -17 4 -4 9 7 17 15 17 17 0 8 -8 3 -21 -13z"/>
<path d="M5511 4547 c-8 -10 -7 -14 2 -14 8 0 14 6 14 14 0 7 -1 13 -2 13 -2
0 -8 -6 -14 -13z"/>
<path d="M5946 4542 c-2 -4 4 -8 14 -8 10 0 16 4 14 8 -3 4 -9 8 -14 8 -5 0
-11 -4 -14 -8z"/>
<path d="M6475 4540 c3 -5 8 -10 11 -10 2 0 4 5 4 10 0 6 -5 10 -11 10 -5 0
-7 -4 -4 -10z"/>
<path d="M6910 4539 c0 -5 5 -7 10 -4 6 3 10 8 10 11 0 2 -4 4 -10 4 -5 0 -10
-5 -10 -11z"/>
<path d="M6833 4525 c0 -8 4 -12 9 -9 5 3 6 10 3 15 -9 13 -12 11 -12 -6z"/>
<path d="M6425 4519 c-3 -4 2 -6 10 -5 21 3 28 13 10 13 -9 0 -18 -4 -20 -8z"/>
<path d="M5075 4511 c-3 -5 -2 -12 3 -15 5 -3 9 1 9 9 0 17 -3 19 -12 6z"/>
<path d="M4695 4500 c3 -5 8 -10 11 -10 2 0 4 5 4 10 0 6 -5 10 -11 10 -5 0
-7 -4 -4 -10z"/>
<path d="M5175 4500 c3 -5 8 -10 11 -10 2 0 4 5 4 10 0 6 -5 10 -11 10 -5 0
-7 -4 -4 -10z"/>
<path d="M6374 4489 c-3 -6 -2 -15 3 -20 5 -5 9 -1 9 11 0 23 -2 24 -12 9z"/>
<path d="M6414 4480 c0 -13 4 -16 10 -10 7 7 7 13 0 20 -6 6 -10 3 -10 -10z"/>
<path d="M6855 4489 c-4 -6 -5 -12 -2 -15 2 -3 7 2 10 11 7 17 1 20 -8 4z"/>
<path d="M5587 4479 c7 -7 15 -10 18 -7 3 3 -2 9 -12 12 -14 6 -15 5 -6 -5z"/>
<path d="M6810 4486 c0 -2 7 -7 16 -10 8 -3 12 -2 9 4 -6 10 -25 14 -25 6z"/>
<path d="M5470 4476 c0 -2 8 -10 18 -17 15 -13 16 -12 3 4 -13 16 -21 21 -21
13z"/>
<path d="M6455 4469 c-4 -6 -5 -12 -2 -15 2 -3 7 2 10 11 7 17 1 20 -8 4z"/>
<path d="M6849 4443 c-13 -16 -12 -17 4 -4 9 7 17 15 17 17 0 8 -8 3 -21 -13z"/>
<path d="M5076 4433 c-6 -14 -5 -15 5 -6 7 7 10 15 7 18 -3 3 -9 -2 -12 -12z"/>
<path d="M6350 4440 c0 -4 7 -7 15 -6 23 3 26 12 5 13 -11 1 -20 -2 -20 -7z"/>
<path d="M6916 4435 c-3 -9 -11 -13 -17 -9 -8 5 -9 3 -4 -5 6 -10 11 -9 23 3
9 8 13 18 10 21 -3 3 -8 -1 -12 -10z"/>
<path d="M4290 4420 c0 -5 5 -10 11 -10 5 0 7 5 4 10 -3 6 -8 10 -11 10 -2 0
-4 -4 -4 -10z"/>
<path d="M5950 4419 c0 -5 5 -7 10 -4 6 3 10 8 10 11 0 2 -4 4 -10 4 -5 0 -10
-5 -10 -11z"/>
<path d="M6827 4419 c7 -7 15 -10 18 -7 3 3 -2 9 -12 12 -14 6 -15 5 -6 -5z"/>
<path d="M5873 4406 c0 -13 40 -16 52 -4 4 4 -1 5 -12 4 -10 -2 -23 0 -29 5
-6 5 -11 4 -11 -5z"/>
<path d="M6333 4405 c0 -8 4 -12 9 -9 5 3 6 10 3 15 -9 13 -12 11 -12 -6z"/>
<path d="M5414 4398 c-4 -7 -3 -10 1 -5 5 4 18 -1 29 -10 21 -18 21 -18 2 5
-22 26 -23 26 -32 10z"/>
<path d="M5515 4401 c-3 -5 -2 -12 3 -15 5 -3 9 1 9 9 0 17 -3 19 -12 6z"/>
<path d="M5066 4382 c-2 -4 4 -8 14 -8 10 0 16 4 14 8 -3 4 -9 8 -14 8 -5 0
-11 -4 -14 -8z"/>
<path d="M6393 4375 c0 -8 4 -12 9 -9 5 3 6 10 3 15 -9 13 -12 11 -12 -6z"/>
<path d="M4789 4363 c-13 -16 -12 -17 4 -4 16 13 21 21 13 21 -2 0 -10 -8 -17
-17z"/>
<path d="M6329 4364 c-11 -14 -24 -52 -14 -42 2 1 3 6 2 9 -1 4 7 16 17 28 11
12 17 21 14 21 -3 0 -12 -7 -19 -16z"/>
<path d="M5020 4366 c0 -2 8 -10 18 -17 15 -13 16 -12 3 4 -13 16 -21 21 -21
13z"/>
<path d="M5500 4366 c0 -2 8 -10 18 -17 15 -13 16 -12 3 4 -13 16 -21 21 -21
13z"/>
<path d="M6760 4365 c0 -2 6 -8 13 -14 10 -8 14 -7 14 2 0 8 -6 14 -14 14 -7
0 -13 -1 -13 -2z"/>
<path d="M5036 4318 c3 -5 10 -6 15 -3 13 9 11 12 -6 12 -8 0 -12 -4 -9 -9z"/>
<path d="M5450 4319 c0 -5 5 -7 10 -4 6 3 10 8 10 11 0 2 -4 4 -10 4 -5 0 -10
-5 -10 -11z"/>
<path d="M6359 4313 c-13 -16 -12 -17 4 -4 16 13 21 21 13 21 -2 0 -10 -8 -17
-17z"/>
<path d="M6756 4318 c3 -5 10 -6 15 -3 13 9 11 12 -6 12 -8 0 -12 -4 -9 -9z"/>
<path d="M5873 4290 c-1 -11 2 -22 6 -24 4 -3 7 4 6 14 -2 27 -10 33 -12 10z"/>
<path d="M4355 4280 c3 -5 8 -10 11 -10 2 0 4 5 4 10 0 6 -5 10 -11 10 -5 0
-7 -4 -4 -10z"/>
<path d="M6751 4267 c-8 -10 -7 -14 2 -14 8 0 14 6 14 14 0 7 -1 13 -2 13 -2
0 -8 -6 -14 -13z"/>
<path d="M5450 4259 c0 -5 5 -7 10 -4 6 3 10 8 10 11 0 2 -4 4 -10 4 -5 0 -10
-5 -10 -11z"/>
<path d="M6280 4255 c-7 -9 -11 -17 -9 -20 3 -2 10 5 17 15 14 24 10 26 -8 5z"/>
<path d="M6815 4260 c3 -5 8 -10 11 -10 2 0 4 5 4 10 0 6 -5 10 -11 10 -5 0
-7 -4 -4 -10z"/>
<path d="M5416 4247 c3 -10 9 -15 12 -12 3 3 0 11 -7 18 -10 9 -11 8 -5 -6z"/>
<path d="M5070 4239 c0 -5 5 -7 10 -4 6 3 10 8 10 11 0 2 -4 4 -10 4 -5 0 -10
-5 -10 -11z"/>
<path d="M5376 4233 c-6 -14 -5 -15 5 -6 7 7 10 15 7 18 -3 3 -9 -2 -12 -12z"/>
<path d="M6716 4218 c3 -5 10 -6 15 -3 13 9 11 12 -6 12 -8 0 -12 -4 -9 -9z"/>
<path d="M5375 4200 c-5 -8 42 -7 49 1 3 3 -6 5 -20 5 -14 0 -27 -3 -29 -6z"/>
<path d="M5890 4200 c0 -5 5 -10 11 -10 5 0 7 5 4 10 -3 6 -8 10 -11 10 -2 0
-4 -4 -4 -10z"/>
<path d="M6315 4200 c-3 -5 -1 -10 4 -10 6 0 11 5 11 10 0 6 -2 10 -4 10 -3 0
-8 -4 -11 -10z"/>
<path d="M6239 4188 c-5 -18 -6 -38 -1 -34 7 8 12 36 6 36 -2 0 -4 -1 -5 -2z"/>
<path d="M6260 4185 c0 -2 6 -8 13 -14 10 -8 14 -7 14 2 0 8 -6 14 -14 14 -7
0 -13 -1 -13 -2z"/>
<path d="M6689 4163 c-13 -16 -12 -17 4 -4 9 7 17 15 17 17 0 8 -8 3 -21 -13z"/>
<path d="M6305 4160 c-3 -6 1 -7 9 -4 18 7 21 14 7 14 -6 0 -13 -4 -16 -10z"/>
<path d="M4110 4141 c0 -6 4 -13 10 -16 6 -3 7 1 4 9 -7 18 -14 21 -14 7z"/>
<path d="M5375 4129 c-4 -6 -5 -12 -2 -15 2 -3 7 2 10 11 7 17 1 20 -8 4z"/>
<path d="M6239 4113 c-17 -20 -18 -23 -3 -10 11 9 23 15 26 12 2 -3 5 2 5 10
0 19 1 20 -28 -12z"/>
<path d="M5779 4113 c-13 -17 -13 -17 6 -3 11 8 22 16 24 17 2 2 0 3 -6 3 -6
0 -17 -8 -24 -17z"/>
<path d="M5309 4103 c-13 -16 -12 -17 4 -4 9 7 17 15 17 17 0 8 -8 3 -21 -13z"/>
<path d="M6671 4107 c-8 -10 -7 -14 2 -14 8 0 14 6 14 14 0 7 -1 13 -2 13 -2
0 -8 -6 -14 -13z"/>
<path d="M6295 4100 c3 -5 8 -10 11 -10 2 0 4 5 4 10 0 6 -5 10 -11 10 -5 0
-7 -4 -4 -10z"/>
<path d="M6755 4100 c3 -5 8 -10 11 -10 2 0 4 5 4 10 0 6 -5 10 -11 10 -5 0
-7 -4 -4 -10z"/>
<path d="M4909 4083 c-13 -16 -12 -17 4 -4 9 7 17 15 17 17 0 8 -8 3 -21 -13z"/>
<path d="M5773 4074 c0 -9 4 -11 12 -4 7 5 14 9 16 7 2 -1 3 0 1 2 -7 11 -29
7 -29 -5z"/>
<path d="M5300 4066 c0 -2 8 -10 18 -17 15 -13 16 -12 3 4 -13 16 -21 21 -21
13z"/>
<path d="M5366 4062 c-3 -5 1 -9 9 -9 8 0 12 4 9 9 -3 4 -7 8 -9 8 -2 0 -6 -4
-9 -8z"/>
<path d="M6193 4047 c-1 -11 -1 -18 0 -16 2 2 8 11 15 20 9 12 9 16 -1 16 -7
0 -14 -9 -14 -20z"/>
<path d="M6294 4062 c3 -6 -2 -15 -11 -21 -10 -6 -13 -11 -7 -11 20 0 37 27
23 36 -7 4 -9 3 -5 -4z"/>
<path d="M6682 4058 c-15 -15 -15 -28 0 -28 6 0 8 3 5 7 -4 3 -2 12 4 20 14
16 7 17 -9 1z"/>
<path d="M6730 4059 c0 -5 5 -7 10 -4 6 3 10 8 10 11 0 2 -4 4 -10 4 -5 0 -10
-5 -10 -11z"/>
<path d="M5336 4033 c-6 -14 -5 -15 5 -6 7 7 10 15 7 18 -3 3 -9 -2 -12 -12z"/>
<path d="M5775 4039 c-3 -4 2 -6 10 -5 21 3 28 13 10 13 -9 0 -18 -4 -20 -8z"/>
<path d="M6713 4025 c0 -8 4 -12 9 -9 5 3 6 10 3 15 -9 13 -12 11 -12 -6z"/>
<path d="M5366 4022 c-3 -5 1 -9 9 -9 8 0 12 4 9 9 -3 4 -7 8 -9 8 -2 0 -6 -4
-9 -8z"/>
<path d="M5810 4020 c0 -5 5 -10 11 -10 5 0 7 5 4 10 -3 6 -8 10 -11 10 -2 0
-4 -4 -4 -10z"/>
<path d="M5286 4005 c-11 -8 -15 -15 -9 -15 6 0 16 7 23 15 16 19 11 19 -14 0z"/>
<path d="M5749 4003 c-13 -16 -12 -17 4 -4 16 13 21 21 13 21 -2 0 -10 -8 -17
-17z"/>
<path d="M5709 3983 c-13 -16 -12 -17 4 -4 16 13 21 21 13 21 -2 0 -10 -8 -17
-17z"/>
<path d="M5330 3979 c0 -5 5 -7 10 -4 6 3 10 8 10 11 0 2 -4 4 -10 4 -5 0 -10
-5 -10 -11z"/>
<path d="M4875 3960 c-3 -5 -1 -10 4 -10 6 0 11 5 11 10 0 6 -2 10 -4 10 -3 0
-8 -4 -11 -10z"/>
<path d="M6195 3960 c3 -5 8 -10 11 -10 2 0 4 5 4 10 0 6 -5 10 -11 10 -5 0
-7 -4 -4 -10z"/>
<path d="M6220 3965 c0 -2 6 -8 13 -14 10 -8 14 -7 14 2 0 8 -6 14 -14 14 -7
0 -13 -1 -13 -2z"/>
<path d="M6656 3958 c3 -5 10 -6 15 -3 13 9 11 12 -6 12 -8 0 -12 -4 -9 -9z"/>
<path d="M5273 3935 c0 -8 4 -12 9 -9 5 3 6 10 3 15 -9 13 -12 11 -12 -6z"/>
<path d="M5306 3939 c2 -4 13 -7 24 -6 23 2 17 10 -10 12 -10 1 -17 -2 -14 -6z"/>
<path d="M4854 3926 c1 -8 5 -18 8 -22 4 -3 5 1 4 10 -1 8 -5 18 -8 22 -4 3
-5 -1 -4 -10z"/>
<path d="M6139 3938 c-5 -18 -6 -38 -1 -34 7 8 12 36 6 36 -2 0 -4 -1 -5 -2z"/>
<path d="M4886 3918 c3 -5 10 -6 15 -3 13 9 11 12 -6 12 -8 0 -12 -4 -9 -9z"/>
<path d="M5687 3919 c7 -7 15 -10 18 -7 3 3 -2 9 -12 12 -14 6 -15 5 -6 -5z"/>
<path d="M5775 3900 c3 -5 8 -10 11 -10 2 0 4 5 4 10 0 6 -5 10 -11 10 -5 0
-7 -4 -4 -10z"/>
<path d="M6625 3900 c-3 -6 1 -7 9 -4 18 7 21 14 7 14 -6 0 -13 -4 -16 -10z"/>
<path d="M4515 3889 c-4 -6 -5 -12 -2 -15 2 -3 7 2 10 11 7 17 1 20 -8 4z"/>
<path d="M6595 3890 c-4 -6 -10 -8 -14 -6 -4 3 -8 -1 -8 -9 0 -13 4 -12 19 2
18 16 22 23 14 23 -3 0 -8 -5 -11 -10z"/>
<path d="M4830 3880 c0 -4 7 -7 15 -6 23 3 26 12 5 13 -11 1 -20 -2 -20 -7z"/>
<path d="M5240 3885 c0 -2 6 -8 13 -14 10 -8 14 -7 14 2 0 8 -6 14 -14 14 -7
0 -13 -1 -13 -2z"/>
<path d="M5680 3860 c-9 -6 -10 -10 -3 -10 6 0 15 5 18 10 8 12 4 12 -15 0z"/>
<path d="M6160 3860 c-9 -6 -10 -10 -3 -10 6 0 15 5 18 10 8 12 4 12 -15 0z"/>
<path d="M6195 3860 c-3 -5 -1 -10 4 -10 6 0 11 5 11 10 0 6 -2 10 -4 10 -3 0
-8 -4 -11 -10z"/>
<path d="M4855 3849 c-4 -6 -5 -12 -2 -15 2 -3 7 2 10 11 7 17 1 20 -8 4z"/>
<path d="M5750 3846 c0 -2 7 -7 16 -10 8 -3 12 -2 9 4 -6 10 -25 14 -25 6z"/>
<path d="M5679 3838 c-6 -20 -6 -39 0 -42 4 -3 7 6 7 20 0 20 -4 32 -7 22z"/>
<path d="M4513 3815 c0 -8 4 -12 9 -9 5 3 6 10 3 15 -9 13 -12 11 -12 -6z"/>
<path d="M5295 3820 c3 -5 8 -10 11 -10 2 0 4 5 4 10 0 6 -5 10 -11 10 -5 0
-7 -4 -4 -10z"/>
<path d="M5726 3822 c-3 -5 1 -9 9 -9 8 0 12 4 9 9 -3 4 -7 8 -9 8 -2 0 -6 -4
-9 -8z"/>
<path d="M4856 3807 c3 -10 9 -15 12 -12 3 3 0 11 -7 18 -10 9 -11 8 -5 -6z"/>
<path d="M6573 3807 c0 -8 6 -14 14 -14 9 0 10 4 2 14 -6 7 -12 13 -14 13 -1
0 -2 -6 -2 -13z"/>
<path d="M4575 3800 c-3 -5 -1 -10 4 -10 6 0 11 5 11 10 0 6 -2 10 -4 10 -3 0
-8 -4 -11 -10z"/>
<path d="M5179 3793 c-13 -17 -13 -17 6 -3 11 8 22 16 24 17 2 2 0 3 -6 3 -6
0 -17 -8 -24 -17z"/>
<path d="M6133 3795 c0 -8 4 -12 9 -9 4 3 8 9 8 15 0 5 -4 9 -8 9 -5 0 -9 -7
-9 -15z"/>
<path d="M6635 3791 c-3 -5 -2 -12 3 -15 5 -3 9 1 9 9 0 17 -3 19 -12 6z"/>
<path d="M5199 3773 c-13 -16 -12 -17 4 -4 16 13 21 21 13 21 -2 0 -10 -8 -17
-17z"/>
<path d="M5230 3776 c0 -2 8 -10 18 -17 15 -13 16 -12 3 4 -13 16 -21 21 -21
13z"/>
<path d="M4796 3758 c3 -5 10 -6 15 -3 13 9 11 12 -6 12 -8 0 -12 -4 -9 -9z"/>
<path d="M6099 3753 c-13 -16 -12 -17 4 -4 9 7 17 15 17 17 0 8 -8 3 -21 -13z"/>
<path d="M6135 3759 c-3 -4 2 -6 10 -5 21 3 28 13 10 13 -9 0 -18 -4 -20 -8z"/>
<path d="M5673 3735 c0 -8 4 -12 9 -9 5 3 6 10 3 15 -9 13 -12 11 -12 -6z"/>
<path d="M6593 3743 c4 -3 1 -13 -6 -22 -11 -14 -10 -14 5 -2 16 12 16 31 1
31 -4 0 -3 -3 0 -7z"/>
<path d="M5160 3725 c0 -2 6 -8 13 -14 10 -8 14 -7 14 2 0 8 -6 14 -14 14 -7
0 -13 -1 -13 -2z"/>
<path d="M5239 3713 c-13 -16 -12 -17 4 -4 16 13 21 21 13 21 -2 0 -10 -8 -17
-17z"/>
<path d="M5605 3721 c3 -3 17 -6 31 -7 13 0 22 2 19 5 -3 3 -17 6 -31 7 -13 0
-22 -2 -19 -5z"/>
<path d="M6116 3722 c-3 -5 1 -9 9 -9 8 0 12 4 9 9 -3 4 -7 8 -9 8 -2 0 -6 -4
-9 -8z"/>
<path d="M5644 3678 l-19 -23 23 19 c12 11 22 21 22 23 0 8 -8 2 -26 -19z"/>
<path d="M6133 3669 c-2 -23 3 -25 10 -4 4 8 3 16 -1 19 -4 3 -9 -4 -9 -15z"/>
<path d="M5593 3655 c0 -8 4 -12 9 -9 4 3 8 9 8 15 0 5 -4 9 -8 9 -5 0 -9 -7
-9 -15z"/>
<path d="M5176 3647 c3 -10 9 -15 12 -12 3 3 0 11 -7 18 -10 9 -11 8 -5 -6z"/>
<path d="M6494 3649 c-3 -6 -2 -15 3 -20 5 -5 9 -1 9 11 0 23 -2 24 -12 9z"/>
<path d="M5633 3635 c0 -8 4 -12 9 -9 4 3 8 9 8 15 0 5 -4 9 -8 9 -5 0 -9 -7
-9 -15z"/>
<path d="M6076 3638 c3 -5 10 -6 15 -3 13 9 11 12 -6 12 -8 0 -12 -4 -9 -9z"/>
<path d="M4610 3620 c0 -5 5 -10 11 -10 5 0 7 5 4 10 -3 6 -8 10 -11 10 -2 0
-4 -4 -4 -10z"/>
<path d="M5573 3605 c0 -8 3 -13 5 -10 3 3 12 -1 21 -7 10 -8 9 -4 -3 10 -23
26 -23 26 -23 7z"/>
<path d="M6470 3601 c0 -6 4 -12 8 -15 5 -3 9 1 9 9 0 8 -4 15 -9 15 -4 0 -8
-4 -8 -9z"/>
<path d="M6120 3560 c-9 -6 -10 -10 -3 -10 6 0 15 5 18 10 8 12 4 12 -15 0z"/>
<path d="M6439 3543 c-1 -5 -1 -12 0 -17 1 -4 -4 -16 -11 -25 -12 -14 -11 -14
4 -3 9 7 16 22 15 33 -1 19 -6 26 -8 12z"/>
<path d="M6495 3529 c-4 -6 -5 -12 -2 -15 2 -3 7 2 10 11 7 17 1 20 -8 4z"/>
<path d="M5566 3519 c4 -8 30 -6 38 2 3 3 -5 5 -19 5 -13 0 -22 -3 -19 -7z"/>
<path d="M6020 3520 c-9 -6 -10 -10 -3 -10 6 0 15 5 18 10 8 12 4 12 -15 0z"/>
<path d="M5114 3496 c1 -8 5 -18 8 -22 4 -3 5 1 4 10 -1 8 -5 18 -8 22 -4 3
-5 -1 -4 -10z"/>
<path d="M5534 3489 c-3 -6 -2 -15 3 -20 5 -5 9 -1 9 11 0 23 -2 24 -12 9z"/>
<path d="M6432 3451 c7 -9 13 -18 15 -20 1 -2 1 5 0 16 0 11 -7 20 -14 20 -10
0 -10 -4 -1 -16z"/>
<path d="M5096 3447 c3 -10 9 -15 12 -12 3 3 0 11 -7 18 -10 9 -11 8 -5 -6z"/>
<path d="M5059 3433 c-12 -16 -12 -17 2 -6 9 7 20 9 24 5 5 -4 5 -1 1 6 -9 16
-11 15 -27 -5z"/>
<path d="M5526 3438 c3 -4 9 -8 15 -8 5 0 9 4 9 8 0 5 -7 9 -15 9 -8 0 -12 -4
-9 -9z"/>
<path d="M6409 3403 c-13 -16 -12 -17 4 -4 9 7 17 15 17 17 0 8 -8 3 -21 -13z"/>
<path d="M5075 3399 c-3 -4 2 -6 10 -5 21 3 28 13 10 13 -9 0 -18 -4 -20 -8z"/>
<path d="M5513 3395 c0 -8 4 -12 9 -9 4 3 8 9 8 15 0 5 -4 9 -8 9 -5 0 -9 -7
-9 -15z"/>
<path d="M5473 3387 c0 -8 6 -14 14 -14 9 0 10 4 2 14 -6 7 -12 13 -14 13 -1
0 -2 -6 -2 -13z"/>
<path d="M5915 3381 c-3 -5 -2 -12 3 -15 5 -3 9 1 9 9 0 17 -3 19 -12 6z"/>
<path d="M5950 3376 c7 -7 13 -7 20 0 6 6 3 10 -10 10 -13 0 -16 -4 -10 -10z"/>
<path d="M5065 3360 c10 -11 20 -20 23 -20 3 0 -3 9 -13 20 -10 11 -20 20 -23
20 -3 0 3 -9 13 -20z"/>
<path d="M5536 3358 c3 -5 10 -6 15 -3 13 9 11 12 -6 12 -8 0 -12 -4 -9 -9z"/>
<path d="M5995 3360 c-3 -5 -1 -10 4 -10 6 0 11 5 11 10 0 6 -2 10 -4 10 -3 0
-8 -4 -11 -10z"/>
<path d="M6359 3348 c-1 -2 -2 -15 -3 -29 0 -14 -8 -34 -16 -45 -14 -17 -13
-18 1 -7 9 7 18 11 20 8 3 -2 5 14 5 35 0 34 -2 48 -7 38z"/>
<path d="M6390 3336 c7 -7 13 -7 20 0 6 6 3 10 -10 10 -13 0 -16 -4 -10 -10z"/>
<path d="M5493 3315 c0 -8 4 -12 9 -9 4 3 8 9 8 15 0 5 -4 9 -8 9 -5 0 -9 -7
-9 -15z"/>
<path d="M5950 3326 c0 -2 7 -7 16 -10 8 -3 12 -2 9 4 -6 10 -25 14 -25 6z"/>
<path d="M4990 3316 c0 -2 8 -10 18 -17 15 -13 16 -12 3 4 -13 16 -21 21 -21
13z"/>
<path d="M5035 3299 c-3 -4 2 -6 10 -5 21 3 28 13 10 13 -9 0 -18 -4 -20 -8z"/>
<path d="M6385 3300 c-3 -6 1 -7 9 -4 18 7 21 14 7 14 -6 0 -13 -4 -16 -10z"/>
<path d="M5933 3287 c0 -8 6 -14 14 -14 9 0 10 4 2 14 -6 7 -12 13 -14 13 -1
0 -2 -6 -2 -13z"/>
<path d="M5500 3286 c0 -2 8 -10 18 -17 15 -13 16 -12 3 4 -13 16 -21 21 -21
13z"/>
<path d="M5020 3266 c0 -2 8 -10 18 -17 15 -13 16 -12 3 4 -13 16 -21 21 -21
13z"/>
<path d="M4993 3232 c2 -12 9 -28 17 -35 10 -10 11 -9 4 3 -5 8 -9 21 -10 28
-2 8 -5 17 -8 20 -4 3 -5 -4 -3 -16z"/>
<path d="M6355 3240 c-3 -5 -1 -10 4 -10 6 0 11 5 11 10 0 6 -2 10 -4 10 -3 0
-8 -4 -11 -10z"/>
<path d="M5915 3222 c3 -3 -1 -12 -7 -21 -8 -10 -4 -9 10 3 26 23 26 23 7 23
-8 0 -13 -3 -10 -5z"/>
<path d="M6419 3228 c-5 -18 -6 -38 -1 -34 7 8 12 36 6 36 -2 0 -4 -1 -5 -2z"/>
<path d="M5476 3193 c-6 -14 -5 -15 5 -6 7 7 10 15 7 18 -3 3 -9 -2 -12 -12z"/>
<path d="M5516 3198 c3 -5 10 -6 15 -3 13 9 11 12 -6 12 -8 0 -12 -4 -9 -9z"/>
<path d="M5430 3179 c0 -5 5 -7 10 -4 6 3 10 8 10 11 0 2 -4 4 -10 4 -5 0 -10
-5 -10 -11z"/>
<path d="M5926 3178 c3 -5 10 -6 15 -3 13 9 11 12 -6 12 -8 0 -12 -4 -9 -9z"/>
<path d="M5896 3167 c3 -10 9 -15 12 -12 3 3 0 11 -7 18 -10 9 -11 8 -5 -6z"/>
<path d="M6319 3168 c-5 -18 -6 -38 -1 -34 7 8 12 36 6 36 -2 0 -4 -1 -5 -2z"/>
<path d="M5391 3147 c-8 -10 -7 -14 2 -14 8 0 14 6 14 14 0 7 -1 13 -2 13 -2
0 -8 -6 -14 -13z"/>
<path d="M5875 3151 c-3 -5 -2 -12 3 -15 5 -3 9 1 9 9 0 17 -3 19 -12 6z"/>
<path d="M6373 3145 c0 -8 4 -12 9 -9 5 3 6 10 3 15 -9 13 -12 11 -12 -6z"/>
<path d="M5010 3139 c0 -5 5 -7 10 -4 6 3 10 8 10 11 0 2 -4 4 -10 4 -5 0 -10
-5 -10 -11z"/>
<path d="M5826 3142 c-2 -4 4 -8 14 -8 10 0 16 4 14 8 -3 4 -9 8 -14 8 -5 0
-11 -4 -14 -8z"/>
<path d="M6276 3142 c-3 -5 1 -9 9 -9 8 0 12 4 9 9 -3 4 -7 8 -9 8 -2 0 -6 -4
-9 -8z"/>
<path d="M4933 3125 c0 -8 4 -12 9 -9 5 3 6 10 3 15 -9 13 -12 11 -12 -6z"/>
<path d="M5907 3119 c7 -7 15 -10 18 -7 3 3 -2 9 -12 12 -14 6 -15 5 -6 -5z"/>
<path d="M5830 3096 c7 -7 13 -7 20 0 6 6 3 10 -10 10 -13 0 -16 -4 -10 -10z"/>
<path d="M4929 3083 c-13 -16 -12 -17 4 -4 16 13 21 21 13 21 -2 0 -10 -8 -17
-17z"/>
<path d="M5351 3087 c2 -1 13 -9 24 -17 19 -14 19 -14 6 3 -7 9 -18 17 -24 17
-6 0 -8 -1 -6 -3z"/>
<path d="M5410 3079 c0 -5 5 -7 10 -4 6 3 10 8 10 11 0 2 -4 4 -10 4 -5 0 -10
-5 -10 -11z"/>
<path d="M5875 3080 c-3 -5 -1 -10 4 -10 6 0 11 5 11 10 0 6 -2 10 -4 10 -3 0
-8 -4 -11 -10z"/>
<path d="M6305 3080 c-3 -6 1 -7 9 -4 18 7 21 14 7 14 -6 0 -13 -4 -16 -10z"/>
<path d="M5817 3050 c7 -8 20 -15 29 -16 9 -1 13 1 9 4 -4 4 -10 7 -13 7 -4 0
-14 4 -22 9 -12 7 -13 6 -3 -4z"/>
<path d="M5874 3042 c4 -3 14 -7 22 -8 9 -1 13 0 10 4 -4 3 -14 7 -22 8 -9 1
-13 0 -10 -4z"/>
<path d="M5789 3023 c-13 -16 -12 -17 4 -4 9 7 17 15 17 17 0 8 -8 3 -21 -13z"/>
<path d="M4975 3020 c3 -5 8 -10 11 -10 2 0 4 5 4 10 0 6 -5 10 -11 10 -5 0
-7 -4 -4 -10z"/>
<path d="M5410 3019 c0 -5 5 -7 10 -4 6 3 10 8 10 11 0 2 -4 4 -10 4 -5 0 -10
-5 -10 -11z"/>
<path d="M5350 3006 c0 -2 7 -7 16 -10 8 -3 12 -2 9 4 -6 10 -25 14 -25 6z"/>
<path d="M5466 2998 c3 -5 10 -6 15 -3 13 9 11 12 -6 12 -8 0 -12 -4 -9 -9z"/>
<path d="M6273 2993 c0 -9 4 -10 14 -2 7 6 13 12 13 14 0 1 -6 2 -13 2 -8 0
-14 -6 -14 -14z"/>
<path d="M5410 2980 c0 -5 5 -10 11 -10 5 0 7 5 4 10 -3 6 -8 10 -11 10 -2 0
-4 -4 -4 -10z"/>
<path d="M5795 2981 c-3 -5 0 -13 7 -18 16 -10 42 -14 33 -5 -4 4 -12 7 -18 7
-7 1 -11 6 -9 13 2 14 -4 16 -13 3z"/>
<path d="M5373 2965 c0 -8 4 -12 9 -9 5 3 6 10 3 15 -9 13 -12 11 -12 -6z"/>
<path d="M5326 2958 c3 -4 9 -8 15 -8 5 0 9 4 9 8 0 5 -7 9 -15 9 -8 0 -12 -4
-9 -9z"/>
<path d="M6220 2966 c0 -2 8 -10 18 -17 15 -13 16 -12 3 4 -13 16 -21 21 -21
13z"/>
<path d="M6297 2955 c-4 -8 -3 -16 1 -19 4 -3 9 4 9 15 2 23 -3 25 -10 4z"/>
<path d="M4752 2931 c7 -9 13 -18 15 -20 1 -2 1 5 0 16 0 11 -7 20 -14 20 -10
0 -10 -4 -1 -16z"/>
<path d="M6075 2940 c-3 -5 -1 -10 4 -10 6 0 11 5 11 10 0 6 -2 10 -4 10 -3 0
-8 -4 -11 -10z"/>
<path d="M5306 2922 c-2 -4 4 -8 14 -8 10 0 16 4 14 8 -3 4 -9 8 -14 8 -5 0
-11 -4 -14 -8z"/>
<path d="M5630 2916 c7 -7 13 -7 20 0 6 6 3 10 -10 10 -13 0 -16 -4 -10 -10z"/>
<path d="M6230 2926 c0 -2 7 -7 16 -10 8 -3 12 -2 9 4 -6 10 -25 14 -25 6z"/>
<path d="M4853 2905 c0 -8 4 -12 9 -9 5 3 6 10 3 15 -9 13 -12 11 -12 -6z"/>
<path d="M5193 2905 c0 -8 4 -12 9 -9 5 3 6 10 3 15 -9 13 -12 11 -12 -6z"/>
<path d="M4790 2901 c0 -6 4 -12 8 -15 5 -3 9 1 9 9 0 8 -4 15 -9 15 -4 0 -8
-4 -8 -9z"/>
<path d="M4753 2885 c0 -8 4 -12 9 -9 5 3 6 10 3 15 -9 13 -12 11 -12 -6z"/>
<path d="M5293 2885 c0 -8 4 -12 9 -9 5 3 6 10 3 15 -9 13 -12 11 -12 -6z"/>
<path d="M5213 2865 c0 -8 4 -12 9 -9 5 3 6 10 3 15 -9 13 -12 11 -12 -6z"/>
<path d="M4676 2853 c-6 -14 -5 -15 5 -6 7 7 10 15 7 18 -3 3 -9 -2 -12 -12z"/>
<path d="M5173 2863 c4 -3 1 -13 -6 -22 -11 -14 -10 -14 5 -2 16 12 16 31 1
31 -4 0 -3 -3 0 -7z"/>
<path d="M5690 2860 c0 -5 5 -10 11 -10 5 0 7 5 4 10 -3 6 -8 10 -11 10 -2 0
-4 -4 -4 -10z"/>
<path d="M6093 2855 c0 -8 4 -12 9 -9 5 3 6 10 3 15 -9 13 -12 11 -12 -6z"/>
<path d="M4816 2833 c-6 -14 -5 -15 5 -6 7 7 10 15 7 18 -3 3 -9 -2 -12 -12z"/>
</g>
</svg>
